<?xml version="1.0" encoding="UTF-8" standalone="no"?><svg xmlns="http://www.w3.org/2000/svg" xmlns:xlink="http://www.w3.org/1999/xlink" contentScriptType="application/ecmascript" contentStyleType="text/css" height="902px" preserveAspectRatio="none" style="width:2970px;height:902px;" version="1.1" viewBox="0 0 2970 902" width="2970px" zoomAndPan="magnify"><defs><filter height="300%" id="f726odl38q04s" width="300%" x="-1" y="-1"><feGaussianBlur result="blurOut" stdDeviation="2.0"/><feColorMatrix in="blurOut" result="blurOut2" type="matrix" values="0 0 0 0 0 0 0 0 0 0 0 0 0 0 0 0 0 0 .4 0"/><feOffset dx="4.0" dy="4.0" in="blurOut2" result="blurOut3"/><feBlend in="SourceGraphic" in2="blurOut3" mode="normal"/></filter></defs><g><!--MD5=[3b70ea02968cd3adada4db9a3f6f5aa6]
cluster Funkcionalnost--><polygon fill="#FFFFFF" filter="url(#f726odl38q04s)" points="465,209,579,209,586,232.6094,2861,232.6094,2861,895,465,895,465,209" style="stroke:#000000;stroke-width:1.5;"/><line style="stroke:#000000;stroke-width:1.5;" x1="465" x2="586" y1="232.6094" y2="232.6094"/><text fill="#000000" font-family="sans-serif" font-size="14" font-weight="bold" lengthAdjust="spacing" textLength="108" x="469" y="225.5332">Funkcionalnost</text><!--MD5=[7bdf0ae4f25d14094e9e9dfb31d1fa6f]
class Rukovanje_tipovima_informacionih_resursa--><rect codeLine="92" fill="#FEFECE" filter="url(#f726odl38q04s)" height="56.1875" id="Rukovanje_tipovima_informacionih_resursa" style="stroke:#A80036;stroke-width:1.5;" width="275" x="1102.5" y="823"/><ellipse cx="1117.5" cy="843.0938" fill="#ADD1B2" rx="11" ry="11" style="stroke:#A80036;stroke-width:1.0;"/><path d="M1120.2656,838.9688 Q1120.4219,838.75 1120.6094,838.6406 Q1120.7969,838.5313 1121.0156,838.5313 Q1121.3906,838.5313 1121.625,838.7969 Q1121.8594,839.0469 1121.8594,839.6563 L1121.8594,841.1094 Q1121.8594,841.7188 1121.625,841.9844 Q1121.3906,842.25 1121.0156,842.25 Q1120.6719,842.25 1120.4688,842.0469 Q1120.2656,841.8594 1120.1563,841.3438 Q1120.1094,840.9844 1119.9219,840.7969 Q1119.5938,840.4219 1118.9844,840.2031 Q1118.375,839.9844 1117.75,839.9844 Q1116.9844,839.9844 1116.3438,840.3125 Q1115.7188,840.6406 1115.2188,841.3906 Q1114.7344,842.1406 1114.7344,843.1719 L1114.7344,844.2656 Q1114.7344,845.5 1115.625,846.3281 Q1116.5156,847.1406 1118.1094,847.1406 Q1119.0469,847.1406 1119.7031,846.8906 Q1120.0938,846.7344 1120.5156,846.2969 Q1120.7813,846.0313 1120.9219,845.9531 Q1121.0781,845.875 1121.2813,845.875 Q1121.6094,845.875 1121.8594,846.1406 Q1122.125,846.3906 1122.125,846.7344 Q1122.125,847.0781 1121.7813,847.4844 Q1121.2813,848.0625 1120.4844,848.3906 Q1119.4063,848.8438 1118.1094,848.8438 Q1116.5938,848.8438 1115.3906,848.2188 Q1114.4063,847.7188 1113.7188,846.6563 Q1113.0313,845.5781 1113.0313,844.2969 L1113.0313,843.1406 Q1113.0313,841.8125 1113.6406,840.6719 Q1114.2656,839.5156 1115.3594,838.9063 Q1116.4531,838.2813 1117.6875,838.2813 Q1118.4219,838.2813 1119.0625,838.4531 Q1119.7188,838.6094 1120.2656,838.9688 Z " fill="#000000"/><text fill="#000000" font-family="sans-serif" font-size="12" font-style="italic" lengthAdjust="spacing" textLength="81" x="1212.5" y="840.457">«requirement»</text><text fill="#000000" font-family="sans-serif" font-size="12" lengthAdjust="spacing" textLength="243" x="1131.5" y="855.5508">Rukovanje_tipovima_informacionih_resursa</text><line style="stroke:#A80036;stroke-width:1.5;" x1="1103.5" x2="1376.5" y1="863.1875" y2="863.1875"/><line style="stroke:#A80036;stroke-width:1.5;" x1="1103.5" x2="1376.5" y1="871.1875" y2="871.1875"/><!--MD5=[d2bfc583208ec645082d8bded57320fc]
class Preuzimanje_razlicitih_tipova_informacionih_resursa--><rect codeLine="22" fill="#FEFECE" filter="url(#f726odl38q04s)" height="56.1875" id="Preuzimanje_razlicitih_tipova_informacionih_resursa" style="stroke:#A80036;stroke-width:1.5;" width="323" x="1147.5" y="245"/><ellipse cx="1162.5" cy="265.0938" fill="#ADD1B2" rx="11" ry="11" style="stroke:#A80036;stroke-width:1.0;"/><path d="M1165.2656,260.9688 Q1165.4219,260.75 1165.6094,260.6406 Q1165.7969,260.5313 1166.0156,260.5313 Q1166.3906,260.5313 1166.625,260.7969 Q1166.8594,261.0469 1166.8594,261.6563 L1166.8594,263.1094 Q1166.8594,263.7188 1166.625,263.9844 Q1166.3906,264.25 1166.0156,264.25 Q1165.6719,264.25 1165.4688,264.0469 Q1165.2656,263.8594 1165.1563,263.3438 Q1165.1094,262.9844 1164.9219,262.7969 Q1164.5938,262.4219 1163.9844,262.2031 Q1163.375,261.9844 1162.75,261.9844 Q1161.9844,261.9844 1161.3438,262.3125 Q1160.7188,262.6406 1160.2188,263.3906 Q1159.7344,264.1406 1159.7344,265.1719 L1159.7344,266.2656 Q1159.7344,267.5 1160.625,268.3281 Q1161.5156,269.1406 1163.1094,269.1406 Q1164.0469,269.1406 1164.7031,268.8906 Q1165.0938,268.7344 1165.5156,268.2969 Q1165.7813,268.0313 1165.9219,267.9531 Q1166.0781,267.875 1166.2813,267.875 Q1166.6094,267.875 1166.8594,268.1406 Q1167.125,268.3906 1167.125,268.7344 Q1167.125,269.0781 1166.7813,269.4844 Q1166.2813,270.0625 1165.4844,270.3906 Q1164.4063,270.8438 1163.1094,270.8438 Q1161.5938,270.8438 1160.3906,270.2188 Q1159.4063,269.7188 1158.7188,268.6563 Q1158.0313,267.5781 1158.0313,266.2969 L1158.0313,265.1406 Q1158.0313,263.8125 1158.6406,262.6719 Q1159.2656,261.5156 1160.3594,260.9063 Q1161.4531,260.2813 1162.6875,260.2813 Q1163.4219,260.2813 1164.0625,260.4531 Q1164.7188,260.6094 1165.2656,260.9688 Z " fill="#000000"/><text fill="#000000" font-family="sans-serif" font-size="12" font-style="italic" lengthAdjust="spacing" textLength="81" x="1281.5" y="262.457">«requirement»</text><text fill="#000000" font-family="sans-serif" font-size="12" lengthAdjust="spacing" textLength="291" x="1176.5" y="277.5508">Preuzimanje_razlicitih_tipova_informacionih_resursa</text><line style="stroke:#A80036;stroke-width:1.5;" x1="1148.5" x2="1469.5" y1="285.1875" y2="285.1875"/><line style="stroke:#A80036;stroke-width:1.5;" x1="1148.5" x2="1469.5" y1="293.1875" y2="293.1875"/><!--MD5=[cce2ea69ebca8bf5076c38a26a0cbc04]
class Mogucnost_sortiranja--><rect codeLine="88" fill="#FEFECE" filter="url(#f726odl38q04s)" height="56.1875" id="Mogucnost_sortiranja" style="stroke:#A80036;stroke-width:1.5;" width="151" x="1841.5" y="245"/><ellipse cx="1856.5" cy="265.0938" fill="#ADD1B2" rx="11" ry="11" style="stroke:#A80036;stroke-width:1.0;"/><path d="M1859.2656,260.9688 Q1859.4219,260.75 1859.6094,260.6406 Q1859.7969,260.5313 1860.0156,260.5313 Q1860.3906,260.5313 1860.625,260.7969 Q1860.8594,261.0469 1860.8594,261.6563 L1860.8594,263.1094 Q1860.8594,263.7188 1860.625,263.9844 Q1860.3906,264.25 1860.0156,264.25 Q1859.6719,264.25 1859.4688,264.0469 Q1859.2656,263.8594 1859.1563,263.3438 Q1859.1094,262.9844 1858.9219,262.7969 Q1858.5938,262.4219 1857.9844,262.2031 Q1857.375,261.9844 1856.75,261.9844 Q1855.9844,261.9844 1855.3438,262.3125 Q1854.7188,262.6406 1854.2188,263.3906 Q1853.7344,264.1406 1853.7344,265.1719 L1853.7344,266.2656 Q1853.7344,267.5 1854.625,268.3281 Q1855.5156,269.1406 1857.1094,269.1406 Q1858.0469,269.1406 1858.7031,268.8906 Q1859.0938,268.7344 1859.5156,268.2969 Q1859.7813,268.0313 1859.9219,267.9531 Q1860.0781,267.875 1860.2813,267.875 Q1860.6094,267.875 1860.8594,268.1406 Q1861.125,268.3906 1861.125,268.7344 Q1861.125,269.0781 1860.7813,269.4844 Q1860.2813,270.0625 1859.4844,270.3906 Q1858.4063,270.8438 1857.1094,270.8438 Q1855.5938,270.8438 1854.3906,270.2188 Q1853.4063,269.7188 1852.7188,268.6563 Q1852.0313,267.5781 1852.0313,266.2969 L1852.0313,265.1406 Q1852.0313,263.8125 1852.6406,262.6719 Q1853.2656,261.5156 1854.3594,260.9063 Q1855.4531,260.2813 1856.6875,260.2813 Q1857.4219,260.2813 1858.0625,260.4531 Q1858.7188,260.6094 1859.2656,260.9688 Z " fill="#000000"/><text fill="#000000" font-family="sans-serif" font-size="12" font-style="italic" lengthAdjust="spacing" textLength="81" x="1889.5" y="262.457">«requirement»</text><text fill="#000000" font-family="sans-serif" font-size="12" lengthAdjust="spacing" textLength="119" x="1870.5" y="277.5508">Mogucnost_sortiranja</text><line style="stroke:#A80036;stroke-width:1.5;" x1="1842.5" x2="1991.5" y1="285.1875" y2="285.1875"/><line style="stroke:#A80036;stroke-width:1.5;" x1="1842.5" x2="1991.5" y1="293.1875" y2="293.1875"/><!--MD5=[8125f09b1d9ee03f6c4010ace15f32b8]
class Cross_platform--><rect codeLine="28" fill="#FEFECE" filter="url(#f726odl38q04s)" height="56.1875" id="Cross_platform" style="stroke:#A80036;stroke-width:1.5;" width="118" x="2028" y="245"/><ellipse cx="2043" cy="265.0938" fill="#ADD1B2" rx="11" ry="11" style="stroke:#A80036;stroke-width:1.0;"/><path d="M2045.7656,260.9688 Q2045.9219,260.75 2046.1094,260.6406 Q2046.2969,260.5313 2046.5156,260.5313 Q2046.8906,260.5313 2047.125,260.7969 Q2047.3594,261.0469 2047.3594,261.6563 L2047.3594,263.1094 Q2047.3594,263.7188 2047.125,263.9844 Q2046.8906,264.25 2046.5156,264.25 Q2046.1719,264.25 2045.9688,264.0469 Q2045.7656,263.8594 2045.6563,263.3438 Q2045.6094,262.9844 2045.4219,262.7969 Q2045.0938,262.4219 2044.4844,262.2031 Q2043.875,261.9844 2043.25,261.9844 Q2042.4844,261.9844 2041.8438,262.3125 Q2041.2188,262.6406 2040.7188,263.3906 Q2040.2344,264.1406 2040.2344,265.1719 L2040.2344,266.2656 Q2040.2344,267.5 2041.125,268.3281 Q2042.0156,269.1406 2043.6094,269.1406 Q2044.5469,269.1406 2045.2031,268.8906 Q2045.5938,268.7344 2046.0156,268.2969 Q2046.2813,268.0313 2046.4219,267.9531 Q2046.5781,267.875 2046.7813,267.875 Q2047.1094,267.875 2047.3594,268.1406 Q2047.625,268.3906 2047.625,268.7344 Q2047.625,269.0781 2047.2813,269.4844 Q2046.7813,270.0625 2045.9844,270.3906 Q2044.9063,270.8438 2043.6094,270.8438 Q2042.0938,270.8438 2040.8906,270.2188 Q2039.9063,269.7188 2039.2188,268.6563 Q2038.5313,267.5781 2038.5313,266.2969 L2038.5313,265.1406 Q2038.5313,263.8125 2039.1406,262.6719 Q2039.7656,261.5156 2040.8594,260.9063 Q2041.9531,260.2813 2043.1875,260.2813 Q2043.9219,260.2813 2044.5625,260.4531 Q2045.2188,260.6094 2045.7656,260.9688 Z " fill="#000000"/><text fill="#000000" font-family="sans-serif" font-size="12" font-style="italic" lengthAdjust="spacing" textLength="81" x="2059.5" y="262.457">«requirement»</text><text fill="#000000" font-family="sans-serif" font-size="12" lengthAdjust="spacing" textLength="86" x="2057" y="277.5508">Cross_platform</text><line style="stroke:#A80036;stroke-width:1.5;" x1="2029" x2="2145" y1="285.1875" y2="285.1875"/><line style="stroke:#A80036;stroke-width:1.5;" x1="2029" x2="2145" y1="293.1875" y2="293.1875"/><!--MD5=[92318ffe50d50c2ed9e12e60e8c99f1f]
class Sistemski_sat--><rect codeLine="31" fill="#FEFECE" filter="url(#f726odl38q04s)" height="56.1875" id="Sistemski_sat" style="stroke:#A80036;stroke-width:1.5;" width="111" x="2181.5" y="245"/><ellipse cx="2196.5" cy="265.0938" fill="#ADD1B2" rx="11" ry="11" style="stroke:#A80036;stroke-width:1.0;"/><path d="M2199.2656,260.9688 Q2199.4219,260.75 2199.6094,260.6406 Q2199.7969,260.5313 2200.0156,260.5313 Q2200.3906,260.5313 2200.625,260.7969 Q2200.8594,261.0469 2200.8594,261.6563 L2200.8594,263.1094 Q2200.8594,263.7188 2200.625,263.9844 Q2200.3906,264.25 2200.0156,264.25 Q2199.6719,264.25 2199.4688,264.0469 Q2199.2656,263.8594 2199.1563,263.3438 Q2199.1094,262.9844 2198.9219,262.7969 Q2198.5938,262.4219 2197.9844,262.2031 Q2197.375,261.9844 2196.75,261.9844 Q2195.9844,261.9844 2195.3438,262.3125 Q2194.7188,262.6406 2194.2188,263.3906 Q2193.7344,264.1406 2193.7344,265.1719 L2193.7344,266.2656 Q2193.7344,267.5 2194.625,268.3281 Q2195.5156,269.1406 2197.1094,269.1406 Q2198.0469,269.1406 2198.7031,268.8906 Q2199.0938,268.7344 2199.5156,268.2969 Q2199.7813,268.0313 2199.9219,267.9531 Q2200.0781,267.875 2200.2813,267.875 Q2200.6094,267.875 2200.8594,268.1406 Q2201.125,268.3906 2201.125,268.7344 Q2201.125,269.0781 2200.7813,269.4844 Q2200.2813,270.0625 2199.4844,270.3906 Q2198.4063,270.8438 2197.1094,270.8438 Q2195.5938,270.8438 2194.3906,270.2188 Q2193.4063,269.7188 2192.7188,268.6563 Q2192.0313,267.5781 2192.0313,266.2969 L2192.0313,265.1406 Q2192.0313,263.8125 2192.6406,262.6719 Q2193.2656,261.5156 2194.3594,260.9063 Q2195.4531,260.2813 2196.6875,260.2813 Q2197.4219,260.2813 2198.0625,260.4531 Q2198.7188,260.6094 2199.2656,260.9688 Z " fill="#000000"/><text fill="#000000" font-family="sans-serif" font-size="12" font-style="italic" lengthAdjust="spacing" textLength="41" x="2229.5" y="262.457">«actor»</text><text fill="#000000" font-family="sans-serif" font-size="12" lengthAdjust="spacing" textLength="79" x="2210.5" y="277.5508">Sistemski_sat</text><line style="stroke:#A80036;stroke-width:1.5;" x1="2182.5" x2="2291.5" y1="285.1875" y2="285.1875"/><line style="stroke:#A80036;stroke-width:1.5;" x1="2182.5" x2="2291.5" y1="293.1875" y2="293.1875"/><!--MD5=[292f2cd4559ccace4dd672148209480b]
class Administracija_pristupa_informacionih_resursa--><rect codeLine="34" fill="#FEFECE" filter="url(#f726odl38q04s)" height="56.1875" id="Administracija_pristupa_informacionih_resursa" style="stroke:#A80036;stroke-width:1.5;" width="294" x="481" y="585"/><ellipse cx="496" cy="605.0938" fill="#ADD1B2" rx="11" ry="11" style="stroke:#A80036;stroke-width:1.0;"/><path d="M498.7656,600.9688 Q498.9219,600.75 499.1094,600.6406 Q499.2969,600.5313 499.5156,600.5313 Q499.8906,600.5313 500.125,600.7969 Q500.3594,601.0469 500.3594,601.6563 L500.3594,603.1094 Q500.3594,603.7188 500.125,603.9844 Q499.8906,604.25 499.5156,604.25 Q499.1719,604.25 498.9688,604.0469 Q498.7656,603.8594 498.6563,603.3438 Q498.6094,602.9844 498.4219,602.7969 Q498.0938,602.4219 497.4844,602.2031 Q496.875,601.9844 496.25,601.9844 Q495.4844,601.9844 494.8438,602.3125 Q494.2188,602.6406 493.7188,603.3906 Q493.2344,604.1406 493.2344,605.1719 L493.2344,606.2656 Q493.2344,607.5 494.125,608.3281 Q495.0156,609.1406 496.6094,609.1406 Q497.5469,609.1406 498.2031,608.8906 Q498.5938,608.7344 499.0156,608.2969 Q499.2813,608.0313 499.4219,607.9531 Q499.5781,607.875 499.7813,607.875 Q500.1094,607.875 500.3594,608.1406 Q500.625,608.3906 500.625,608.7344 Q500.625,609.0781 500.2813,609.4844 Q499.7813,610.0625 498.9844,610.3906 Q497.9063,610.8438 496.6094,610.8438 Q495.0938,610.8438 493.8906,610.2188 Q492.9063,609.7188 492.2188,608.6563 Q491.5313,607.5781 491.5313,606.2969 L491.5313,605.1406 Q491.5313,603.8125 492.1406,602.6719 Q492.7656,601.5156 493.8594,600.9063 Q494.9531,600.2813 496.1875,600.2813 Q496.9219,600.2813 497.5625,600.4531 Q498.2188,600.6094 498.7656,600.9688 Z " fill="#000000"/><text fill="#000000" font-family="sans-serif" font-size="12" font-style="italic" lengthAdjust="spacing" textLength="81" x="600.5" y="602.457">«requirement»</text><text fill="#000000" font-family="sans-serif" font-size="12" lengthAdjust="spacing" textLength="262" x="510" y="617.5508">Administracija_pristupa_informacionih_resursa</text><line style="stroke:#A80036;stroke-width:1.5;" x1="482" x2="774" y1="625.1875" y2="625.1875"/><line style="stroke:#A80036;stroke-width:1.5;" x1="482" x2="774" y1="633.1875" y2="633.1875"/><!--MD5=[31f4b11d1056cd52c8ad86d98e7cc6b5]
class Spustanje_aplikacije--><rect codeLine="42" fill="#FEFECE" filter="url(#f726odl38q04s)" height="56.1875" id="Spustanje_aplikacije" style="stroke:#A80036;stroke-width:1.5;" width="147" x="625.5" y="245"/><ellipse cx="640.5" cy="265.0938" fill="#ADD1B2" rx="11" ry="11" style="stroke:#A80036;stroke-width:1.0;"/><path d="M643.2656,260.9688 Q643.4219,260.75 643.6094,260.6406 Q643.7969,260.5313 644.0156,260.5313 Q644.3906,260.5313 644.625,260.7969 Q644.8594,261.0469 644.8594,261.6563 L644.8594,263.1094 Q644.8594,263.7188 644.625,263.9844 Q644.3906,264.25 644.0156,264.25 Q643.6719,264.25 643.4688,264.0469 Q643.2656,263.8594 643.1563,263.3438 Q643.1094,262.9844 642.9219,262.7969 Q642.5938,262.4219 641.9844,262.2031 Q641.375,261.9844 640.75,261.9844 Q639.9844,261.9844 639.3438,262.3125 Q638.7188,262.6406 638.2188,263.3906 Q637.7344,264.1406 637.7344,265.1719 L637.7344,266.2656 Q637.7344,267.5 638.625,268.3281 Q639.5156,269.1406 641.1094,269.1406 Q642.0469,269.1406 642.7031,268.8906 Q643.0938,268.7344 643.5156,268.2969 Q643.7813,268.0313 643.9219,267.9531 Q644.0781,267.875 644.2813,267.875 Q644.6094,267.875 644.8594,268.1406 Q645.125,268.3906 645.125,268.7344 Q645.125,269.0781 644.7813,269.4844 Q644.2813,270.0625 643.4844,270.3906 Q642.4063,270.8438 641.1094,270.8438 Q639.5938,270.8438 638.3906,270.2188 Q637.4063,269.7188 636.7188,268.6563 Q636.0313,267.5781 636.0313,266.2969 L636.0313,265.1406 Q636.0313,263.8125 636.6406,262.6719 Q637.2656,261.5156 638.3594,260.9063 Q639.4531,260.2813 640.6875,260.2813 Q641.4219,260.2813 642.0625,260.4531 Q642.7188,260.6094 643.2656,260.9688 Z " fill="#000000"/><text fill="#000000" font-family="sans-serif" font-size="12" font-style="italic" lengthAdjust="spacing" textLength="81" x="671.5" y="262.457">«requirement»</text><text fill="#000000" font-family="sans-serif" font-size="12" lengthAdjust="spacing" textLength="115" x="654.5" y="277.5508">Spustanje_aplikacije</text><line style="stroke:#A80036;stroke-width:1.5;" x1="626.5" x2="771.5" y1="285.1875" y2="285.1875"/><line style="stroke:#A80036;stroke-width:1.5;" x1="626.5" x2="771.5" y1="293.1875" y2="293.1875"/><!--MD5=[57d4f7e25b43b5d29245b67b1a475c12]
class Rukovanje_pojedinacnim_informacionim_resursom--><rect codeLine="45" fill="#FEFECE" filter="url(#f726odl38q04s)" height="56.1875" id="Rukovanje_pojedinacnim_informacionim_resursom" style="stroke:#A80036;stroke-width:1.5;" width="319" x="1330.5" y="585"/><ellipse cx="1345.5" cy="605.0938" fill="#ADD1B2" rx="11" ry="11" style="stroke:#A80036;stroke-width:1.0;"/><path d="M1348.2656,600.9688 Q1348.4219,600.75 1348.6094,600.6406 Q1348.7969,600.5313 1349.0156,600.5313 Q1349.3906,600.5313 1349.625,600.7969 Q1349.8594,601.0469 1349.8594,601.6563 L1349.8594,603.1094 Q1349.8594,603.7188 1349.625,603.9844 Q1349.3906,604.25 1349.0156,604.25 Q1348.6719,604.25 1348.4688,604.0469 Q1348.2656,603.8594 1348.1563,603.3438 Q1348.1094,602.9844 1347.9219,602.7969 Q1347.5938,602.4219 1346.9844,602.2031 Q1346.375,601.9844 1345.75,601.9844 Q1344.9844,601.9844 1344.3438,602.3125 Q1343.7188,602.6406 1343.2188,603.3906 Q1342.7344,604.1406 1342.7344,605.1719 L1342.7344,606.2656 Q1342.7344,607.5 1343.625,608.3281 Q1344.5156,609.1406 1346.1094,609.1406 Q1347.0469,609.1406 1347.7031,608.8906 Q1348.0938,608.7344 1348.5156,608.2969 Q1348.7813,608.0313 1348.9219,607.9531 Q1349.0781,607.875 1349.2813,607.875 Q1349.6094,607.875 1349.8594,608.1406 Q1350.125,608.3906 1350.125,608.7344 Q1350.125,609.0781 1349.7813,609.4844 Q1349.2813,610.0625 1348.4844,610.3906 Q1347.4063,610.8438 1346.1094,610.8438 Q1344.5938,610.8438 1343.3906,610.2188 Q1342.4063,609.7188 1341.7188,608.6563 Q1341.0313,607.5781 1341.0313,606.2969 L1341.0313,605.1406 Q1341.0313,603.8125 1341.6406,602.6719 Q1342.2656,601.5156 1343.3594,600.9063 Q1344.4531,600.2813 1345.6875,600.2813 Q1346.4219,600.2813 1347.0625,600.4531 Q1347.7188,600.6094 1348.2656,600.9688 Z " fill="#000000"/><text fill="#000000" font-family="sans-serif" font-size="12" font-style="italic" lengthAdjust="spacing" textLength="81" x="1462.5" y="602.457">«requirement»</text><text fill="#000000" font-family="sans-serif" font-size="12" lengthAdjust="spacing" textLength="287" x="1359.5" y="617.5508">Rukovanje_pojedinacnim_informacionim_resursom</text><line style="stroke:#A80036;stroke-width:1.5;" x1="1331.5" x2="1648.5" y1="625.1875" y2="625.1875"/><line style="stroke:#A80036;stroke-width:1.5;" x1="1331.5" x2="1648.5" y1="633.1875" y2="633.1875"/><!--MD5=[1ea5f36072035c181682ee0c47e0c493]
class Prekid_rada--><rect codeLine="48" fill="#FEFECE" filter="url(#f726odl38q04s)" height="56.1875" id="Prekid_rada" style="stroke:#A80036;stroke-width:1.5;" width="109" x="481.5" y="245"/><ellipse cx="496.5" cy="265.0938" fill="#ADD1B2" rx="11" ry="11" style="stroke:#A80036;stroke-width:1.0;"/><path d="M499.2656,260.9688 Q499.4219,260.75 499.6094,260.6406 Q499.7969,260.5313 500.0156,260.5313 Q500.3906,260.5313 500.625,260.7969 Q500.8594,261.0469 500.8594,261.6563 L500.8594,263.1094 Q500.8594,263.7188 500.625,263.9844 Q500.3906,264.25 500.0156,264.25 Q499.6719,264.25 499.4688,264.0469 Q499.2656,263.8594 499.1563,263.3438 Q499.1094,262.9844 498.9219,262.7969 Q498.5938,262.4219 497.9844,262.2031 Q497.375,261.9844 496.75,261.9844 Q495.9844,261.9844 495.3438,262.3125 Q494.7188,262.6406 494.2188,263.3906 Q493.7344,264.1406 493.7344,265.1719 L493.7344,266.2656 Q493.7344,267.5 494.625,268.3281 Q495.5156,269.1406 497.1094,269.1406 Q498.0469,269.1406 498.7031,268.8906 Q499.0938,268.7344 499.5156,268.2969 Q499.7813,268.0313 499.9219,267.9531 Q500.0781,267.875 500.2813,267.875 Q500.6094,267.875 500.8594,268.1406 Q501.125,268.3906 501.125,268.7344 Q501.125,269.0781 500.7813,269.4844 Q500.2813,270.0625 499.4844,270.3906 Q498.4063,270.8438 497.1094,270.8438 Q495.5938,270.8438 494.3906,270.2188 Q493.4063,269.7188 492.7188,268.6563 Q492.0313,267.5781 492.0313,266.2969 L492.0313,265.1406 Q492.0313,263.8125 492.6406,262.6719 Q493.2656,261.5156 494.3594,260.9063 Q495.4531,260.2813 496.6875,260.2813 Q497.4219,260.2813 498.0625,260.4531 Q498.7188,260.6094 499.2656,260.9688 Z " fill="#000000"/><text fill="#000000" font-family="sans-serif" font-size="12" font-style="italic" lengthAdjust="spacing" textLength="81" x="508.5" y="262.457">«requirement»</text><text fill="#000000" font-family="sans-serif" font-size="12" lengthAdjust="spacing" textLength="67" x="515.5" y="277.5508">Prekid_rada</text><line style="stroke:#A80036;stroke-width:1.5;" x1="482.5" x2="589.5" y1="285.1875" y2="285.1875"/><line style="stroke:#A80036;stroke-width:1.5;" x1="482.5" x2="589.5" y1="293.1875" y2="293.1875"/><!--MD5=[7a2d8328da39b2fce1110776aa3ab202]
class Izmene_i_brisanje_razlicitih_tipova_informacionih_resursa--><rect codeLine="51" fill="#FEFECE" filter="url(#f726odl38q04s)" height="56.1875" id="Izmene_i_brisanje_razlicitih_tipova_informacionih_resursa" style="stroke:#A80036;stroke-width:1.5;" width="356" x="1685" y="585"/><ellipse cx="1700" cy="605.0938" fill="#ADD1B2" rx="11" ry="11" style="stroke:#A80036;stroke-width:1.0;"/><path d="M1702.7656,600.9688 Q1702.9219,600.75 1703.1094,600.6406 Q1703.2969,600.5313 1703.5156,600.5313 Q1703.8906,600.5313 1704.125,600.7969 Q1704.3594,601.0469 1704.3594,601.6563 L1704.3594,603.1094 Q1704.3594,603.7188 1704.125,603.9844 Q1703.8906,604.25 1703.5156,604.25 Q1703.1719,604.25 1702.9688,604.0469 Q1702.7656,603.8594 1702.6563,603.3438 Q1702.6094,602.9844 1702.4219,602.7969 Q1702.0938,602.4219 1701.4844,602.2031 Q1700.875,601.9844 1700.25,601.9844 Q1699.4844,601.9844 1698.8438,602.3125 Q1698.2188,602.6406 1697.7188,603.3906 Q1697.2344,604.1406 1697.2344,605.1719 L1697.2344,606.2656 Q1697.2344,607.5 1698.125,608.3281 Q1699.0156,609.1406 1700.6094,609.1406 Q1701.5469,609.1406 1702.2031,608.8906 Q1702.5938,608.7344 1703.0156,608.2969 Q1703.2813,608.0313 1703.4219,607.9531 Q1703.5781,607.875 1703.7813,607.875 Q1704.1094,607.875 1704.3594,608.1406 Q1704.625,608.3906 1704.625,608.7344 Q1704.625,609.0781 1704.2813,609.4844 Q1703.7813,610.0625 1702.9844,610.3906 Q1701.9063,610.8438 1700.6094,610.8438 Q1699.0938,610.8438 1697.8906,610.2188 Q1696.9063,609.7188 1696.2188,608.6563 Q1695.5313,607.5781 1695.5313,606.2969 L1695.5313,605.1406 Q1695.5313,603.8125 1696.1406,602.6719 Q1696.7656,601.5156 1697.8594,600.9063 Q1698.9531,600.2813 1700.1875,600.2813 Q1700.9219,600.2813 1701.5625,600.4531 Q1702.2188,600.6094 1702.7656,600.9688 Z " fill="#000000"/><text fill="#000000" font-family="sans-serif" font-size="12" font-style="italic" lengthAdjust="spacing" textLength="81" x="1835.5" y="602.457">«requirement»</text><text fill="#000000" font-family="sans-serif" font-size="12" lengthAdjust="spacing" textLength="324" x="1714" y="617.5508">Izmene_i_brisanje_razlicitih_tipova_informacionih_resursa</text><line style="stroke:#A80036;stroke-width:1.5;" x1="1686" x2="2040" y1="625.1875" y2="625.1875"/><line style="stroke:#A80036;stroke-width:1.5;" x1="1686" x2="2040" y1="633.1875" y2="633.1875"/><!--MD5=[10f64534ce248f6867b4f904f7199608]
class Kreiranje_razlicitih_tipova_informacionih_resursa--><rect codeLine="64" fill="#FEFECE" filter="url(#f726odl38q04s)" height="56.1875" id="Kreiranje_razlicitih_tipova_informacionih_resursa" style="stroke:#A80036;stroke-width:1.5;" width="304" x="808" y="245"/><ellipse cx="823" cy="265.0938" fill="#ADD1B2" rx="11" ry="11" style="stroke:#A80036;stroke-width:1.0;"/><path d="M825.7656,260.9688 Q825.9219,260.75 826.1094,260.6406 Q826.2969,260.5313 826.5156,260.5313 Q826.8906,260.5313 827.125,260.7969 Q827.3594,261.0469 827.3594,261.6563 L827.3594,263.1094 Q827.3594,263.7188 827.125,263.9844 Q826.8906,264.25 826.5156,264.25 Q826.1719,264.25 825.9688,264.0469 Q825.7656,263.8594 825.6563,263.3438 Q825.6094,262.9844 825.4219,262.7969 Q825.0938,262.4219 824.4844,262.2031 Q823.875,261.9844 823.25,261.9844 Q822.4844,261.9844 821.8438,262.3125 Q821.2188,262.6406 820.7188,263.3906 Q820.2344,264.1406 820.2344,265.1719 L820.2344,266.2656 Q820.2344,267.5 821.125,268.3281 Q822.0156,269.1406 823.6094,269.1406 Q824.5469,269.1406 825.2031,268.8906 Q825.5938,268.7344 826.0156,268.2969 Q826.2813,268.0313 826.4219,267.9531 Q826.5781,267.875 826.7813,267.875 Q827.1094,267.875 827.3594,268.1406 Q827.625,268.3906 827.625,268.7344 Q827.625,269.0781 827.2813,269.4844 Q826.7813,270.0625 825.9844,270.3906 Q824.9063,270.8438 823.6094,270.8438 Q822.0938,270.8438 820.8906,270.2188 Q819.9063,269.7188 819.2188,268.6563 Q818.5313,267.5781 818.5313,266.2969 L818.5313,265.1406 Q818.5313,263.8125 819.1406,262.6719 Q819.7656,261.5156 820.8594,260.9063 Q821.9531,260.2813 823.1875,260.2813 Q823.9219,260.2813 824.5625,260.4531 Q825.2188,260.6094 825.7656,260.9688 Z " fill="#000000"/><text fill="#000000" font-family="sans-serif" font-size="12" font-style="italic" lengthAdjust="spacing" textLength="81" x="932.5" y="262.457">«requirement»</text><text fill="#000000" font-family="sans-serif" font-size="12" lengthAdjust="spacing" textLength="272" x="837" y="277.5508">Kreiranje_razlicitih_tipova_informacionih_resursa</text><line style="stroke:#A80036;stroke-width:1.5;" x1="809" x2="1111" y1="285.1875" y2="285.1875"/><line style="stroke:#A80036;stroke-width:1.5;" x1="809" x2="1111" y1="293.1875" y2="293.1875"/><!--MD5=[8231a4bee7c88bef1d87f7c793c805f3]
class Pretraga_razlicitih_tipova_informacionih_resursa--><rect codeLine="108" fill="#FEFECE" filter="url(#f726odl38q04s)" height="56.1875" id="Pretraga_razlicitih_tipova_informacionih_resursa" style="stroke:#A80036;stroke-width:1.5;" width="301" x="1505.5" y="245"/><ellipse cx="1520.5" cy="265.0938" fill="#ADD1B2" rx="11" ry="11" style="stroke:#A80036;stroke-width:1.0;"/><path d="M1523.2656,260.9688 Q1523.4219,260.75 1523.6094,260.6406 Q1523.7969,260.5313 1524.0156,260.5313 Q1524.3906,260.5313 1524.625,260.7969 Q1524.8594,261.0469 1524.8594,261.6563 L1524.8594,263.1094 Q1524.8594,263.7188 1524.625,263.9844 Q1524.3906,264.25 1524.0156,264.25 Q1523.6719,264.25 1523.4688,264.0469 Q1523.2656,263.8594 1523.1563,263.3438 Q1523.1094,262.9844 1522.9219,262.7969 Q1522.5938,262.4219 1521.9844,262.2031 Q1521.375,261.9844 1520.75,261.9844 Q1519.9844,261.9844 1519.3438,262.3125 Q1518.7188,262.6406 1518.2188,263.3906 Q1517.7344,264.1406 1517.7344,265.1719 L1517.7344,266.2656 Q1517.7344,267.5 1518.625,268.3281 Q1519.5156,269.1406 1521.1094,269.1406 Q1522.0469,269.1406 1522.7031,268.8906 Q1523.0938,268.7344 1523.5156,268.2969 Q1523.7813,268.0313 1523.9219,267.9531 Q1524.0781,267.875 1524.2813,267.875 Q1524.6094,267.875 1524.8594,268.1406 Q1525.125,268.3906 1525.125,268.7344 Q1525.125,269.0781 1524.7813,269.4844 Q1524.2813,270.0625 1523.4844,270.3906 Q1522.4063,270.8438 1521.1094,270.8438 Q1519.5938,270.8438 1518.3906,270.2188 Q1517.4063,269.7188 1516.7188,268.6563 Q1516.0313,267.5781 1516.0313,266.2969 L1516.0313,265.1406 Q1516.0313,263.8125 1516.6406,262.6719 Q1517.2656,261.5156 1518.3594,260.9063 Q1519.4531,260.2813 1520.6875,260.2813 Q1521.4219,260.2813 1522.0625,260.4531 Q1522.7188,260.6094 1523.2656,260.9688 Z " fill="#000000"/><text fill="#000000" font-family="sans-serif" font-size="12" font-style="italic" lengthAdjust="spacing" textLength="81" x="1628.5" y="262.457">«requirement»</text><text fill="#000000" font-family="sans-serif" font-size="12" lengthAdjust="spacing" textLength="269" x="1534.5" y="277.5508">Pretraga_razlicitih_tipova_informacionih_resursa</text><line style="stroke:#A80036;stroke-width:1.5;" x1="1506.5" x2="1805.5" y1="285.1875" y2="285.1875"/><line style="stroke:#A80036;stroke-width:1.5;" x1="1506.5" x2="1805.5" y1="293.1875" y2="293.1875"/><!--MD5=[3381775c9eaf92eaed5c6683a104b172]
class Pokretanje--><rect codeLine="58" fill="#FEFECE" filter="url(#f726odl38q04s)" height="56.1875" id="Pokretanje" style="stroke:#A80036;stroke-width:1.5;" width="109" x="810.5" y="585"/><ellipse cx="825.5" cy="605.0938" fill="#ADD1B2" rx="11" ry="11" style="stroke:#A80036;stroke-width:1.0;"/><path d="M828.2656,600.9688 Q828.4219,600.75 828.6094,600.6406 Q828.7969,600.5313 829.0156,600.5313 Q829.3906,600.5313 829.625,600.7969 Q829.8594,601.0469 829.8594,601.6563 L829.8594,603.1094 Q829.8594,603.7188 829.625,603.9844 Q829.3906,604.25 829.0156,604.25 Q828.6719,604.25 828.4688,604.0469 Q828.2656,603.8594 828.1563,603.3438 Q828.1094,602.9844 827.9219,602.7969 Q827.5938,602.4219 826.9844,602.2031 Q826.375,601.9844 825.75,601.9844 Q824.9844,601.9844 824.3438,602.3125 Q823.7188,602.6406 823.2188,603.3906 Q822.7344,604.1406 822.7344,605.1719 L822.7344,606.2656 Q822.7344,607.5 823.625,608.3281 Q824.5156,609.1406 826.1094,609.1406 Q827.0469,609.1406 827.7031,608.8906 Q828.0938,608.7344 828.5156,608.2969 Q828.7813,608.0313 828.9219,607.9531 Q829.0781,607.875 829.2813,607.875 Q829.6094,607.875 829.8594,608.1406 Q830.125,608.3906 830.125,608.7344 Q830.125,609.0781 829.7813,609.4844 Q829.2813,610.0625 828.4844,610.3906 Q827.4063,610.8438 826.1094,610.8438 Q824.5938,610.8438 823.3906,610.2188 Q822.4063,609.7188 821.7188,608.6563 Q821.0313,607.5781 821.0313,606.2969 L821.0313,605.1406 Q821.0313,603.8125 821.6406,602.6719 Q822.2656,601.5156 823.3594,600.9063 Q824.4531,600.2813 825.6875,600.2813 Q826.4219,600.2813 827.0625,600.4531 Q827.7188,600.6094 828.2656,600.9688 Z " fill="#000000"/><text fill="#000000" font-family="sans-serif" font-size="12" font-style="italic" lengthAdjust="spacing" textLength="81" x="837.5" y="602.457">«requirement»</text><text fill="#000000" font-family="sans-serif" font-size="12" lengthAdjust="spacing" textLength="59" x="848.5" y="617.5508">Pokretanje</text><line style="stroke:#A80036;stroke-width:1.5;" x1="811.5" x2="918.5" y1="625.1875" y2="625.1875"/><line style="stroke:#A80036;stroke-width:1.5;" x1="811.5" x2="918.5" y1="633.1875" y2="633.1875"/><!--MD5=[5d9d376fdc819f67f84f658274fd9f42]
class Rukovalac_informacionih_resursa--><rect codeLine="68" fill="#FEFECE" filter="url(#f726odl38q04s)" height="48" id="Rukovalac_informacionih_resursa" style="stroke:#A80036;stroke-width:1.5;" width="221" x="2489.5" y="249"/><ellipse cx="2504.5" cy="265" fill="#ADD1B2" rx="11" ry="11" style="stroke:#A80036;stroke-width:1.0;"/><path d="M2507.2656,260.875 Q2507.4219,260.6563 2507.6094,260.5469 Q2507.7969,260.4375 2508.0156,260.4375 Q2508.3906,260.4375 2508.625,260.7031 Q2508.8594,260.9531 2508.8594,261.5625 L2508.8594,263.0156 Q2508.8594,263.625 2508.625,263.8906 Q2508.3906,264.1563 2508.0156,264.1563 Q2507.6719,264.1563 2507.4688,263.9531 Q2507.2656,263.7656 2507.1563,263.25 Q2507.1094,262.8906 2506.9219,262.7031 Q2506.5938,262.3281 2505.9844,262.1094 Q2505.375,261.8906 2504.75,261.8906 Q2503.9844,261.8906 2503.3438,262.2188 Q2502.7188,262.5469 2502.2188,263.2969 Q2501.7344,264.0469 2501.7344,265.0781 L2501.7344,266.1719 Q2501.7344,267.4063 2502.625,268.2344 Q2503.5156,269.0469 2505.1094,269.0469 Q2506.0469,269.0469 2506.7031,268.7969 Q2507.0938,268.6406 2507.5156,268.2031 Q2507.7813,267.9375 2507.9219,267.8594 Q2508.0781,267.7813 2508.2813,267.7813 Q2508.6094,267.7813 2508.8594,268.0469 Q2509.125,268.2969 2509.125,268.6406 Q2509.125,268.9844 2508.7813,269.3906 Q2508.2813,269.9688 2507.4844,270.2969 Q2506.4063,270.75 2505.1094,270.75 Q2503.5938,270.75 2502.3906,270.125 Q2501.4063,269.625 2500.7188,268.5625 Q2500.0313,267.4844 2500.0313,266.2031 L2500.0313,265.0469 Q2500.0313,263.7188 2500.6406,262.5781 Q2501.2656,261.4219 2502.3594,260.8125 Q2503.4531,260.1875 2504.6875,260.1875 Q2505.4219,260.1875 2506.0625,260.3594 Q2506.7188,260.5156 2507.2656,260.875 Z " fill="#000000"/><text fill="#000000" font-family="sans-serif" font-size="12" lengthAdjust="spacing" textLength="189" x="2518.5" y="269.9102">Rukovalac_informacionih_resursa</text><line style="stroke:#A80036;stroke-width:1.5;" x1="2490.5" x2="2709.5" y1="281" y2="281"/><line style="stroke:#A80036;stroke-width:1.5;" x1="2490.5" x2="2709.5" y1="289" y2="289"/><!--MD5=[5b461f340c38ef6a257b30065f56c8c4]
class Cuvanje_stanja--><rect codeLine="70" fill="#FEFECE" filter="url(#f726odl38q04s)" height="48" id="Cuvanje_stanja" style="stroke:#A80036;stroke-width:1.5;" width="118" x="2328" y="249"/><ellipse cx="2343" cy="265" fill="#ADD1B2" rx="11" ry="11" style="stroke:#A80036;stroke-width:1.0;"/><path d="M2345.7656,260.875 Q2345.9219,260.6563 2346.1094,260.5469 Q2346.2969,260.4375 2346.5156,260.4375 Q2346.8906,260.4375 2347.125,260.7031 Q2347.3594,260.9531 2347.3594,261.5625 L2347.3594,263.0156 Q2347.3594,263.625 2347.125,263.8906 Q2346.8906,264.1563 2346.5156,264.1563 Q2346.1719,264.1563 2345.9688,263.9531 Q2345.7656,263.7656 2345.6563,263.25 Q2345.6094,262.8906 2345.4219,262.7031 Q2345.0938,262.3281 2344.4844,262.1094 Q2343.875,261.8906 2343.25,261.8906 Q2342.4844,261.8906 2341.8438,262.2188 Q2341.2188,262.5469 2340.7188,263.2969 Q2340.2344,264.0469 2340.2344,265.0781 L2340.2344,266.1719 Q2340.2344,267.4063 2341.125,268.2344 Q2342.0156,269.0469 2343.6094,269.0469 Q2344.5469,269.0469 2345.2031,268.7969 Q2345.5938,268.6406 2346.0156,268.2031 Q2346.2813,267.9375 2346.4219,267.8594 Q2346.5781,267.7813 2346.7813,267.7813 Q2347.1094,267.7813 2347.3594,268.0469 Q2347.625,268.2969 2347.625,268.6406 Q2347.625,268.9844 2347.2813,269.3906 Q2346.7813,269.9688 2345.9844,270.2969 Q2344.9063,270.75 2343.6094,270.75 Q2342.0938,270.75 2340.8906,270.125 Q2339.9063,269.625 2339.2188,268.5625 Q2338.5313,267.4844 2338.5313,266.2031 L2338.5313,265.0469 Q2338.5313,263.7188 2339.1406,262.5781 Q2339.7656,261.4219 2340.8594,260.8125 Q2341.9531,260.1875 2343.1875,260.1875 Q2343.9219,260.1875 2344.5625,260.3594 Q2345.2188,260.5156 2345.7656,260.875 Z " fill="#000000"/><text fill="#000000" font-family="sans-serif" font-size="12" lengthAdjust="spacing" textLength="86" x="2357" y="269.9102">Cuvanje_stanja</text><line style="stroke:#A80036;stroke-width:1.5;" x1="2329" x2="2445" y1="281" y2="281"/><line style="stroke:#A80036;stroke-width:1.5;" x1="2329" x2="2445" y1="289" y2="289"/><!--MD5=[35f707c0229a9f892caa5f47f4e82b69]
class Kreiranje_informacionih_resursa--><rect codeLine="73" fill="#FEFECE" filter="url(#f726odl38q04s)" height="48" id="Kreiranje_informacionih_resursa" style="stroke:#A80036;stroke-width:1.5;" width="214" x="1767" y="361"/><ellipse cx="1782" cy="377" fill="#ADD1B2" rx="11" ry="11" style="stroke:#A80036;stroke-width:1.0;"/><path d="M1784.7656,372.875 Q1784.9219,372.6563 1785.1094,372.5469 Q1785.2969,372.4375 1785.5156,372.4375 Q1785.8906,372.4375 1786.125,372.7031 Q1786.3594,372.9531 1786.3594,373.5625 L1786.3594,375.0156 Q1786.3594,375.625 1786.125,375.8906 Q1785.8906,376.1563 1785.5156,376.1563 Q1785.1719,376.1563 1784.9688,375.9531 Q1784.7656,375.7656 1784.6563,375.25 Q1784.6094,374.8906 1784.4219,374.7031 Q1784.0938,374.3281 1783.4844,374.1094 Q1782.875,373.8906 1782.25,373.8906 Q1781.4844,373.8906 1780.8438,374.2188 Q1780.2188,374.5469 1779.7188,375.2969 Q1779.2344,376.0469 1779.2344,377.0781 L1779.2344,378.1719 Q1779.2344,379.4063 1780.125,380.2344 Q1781.0156,381.0469 1782.6094,381.0469 Q1783.5469,381.0469 1784.2031,380.7969 Q1784.5938,380.6406 1785.0156,380.2031 Q1785.2813,379.9375 1785.4219,379.8594 Q1785.5781,379.7813 1785.7813,379.7813 Q1786.1094,379.7813 1786.3594,380.0469 Q1786.625,380.2969 1786.625,380.6406 Q1786.625,380.9844 1786.2813,381.3906 Q1785.7813,381.9688 1784.9844,382.2969 Q1783.9063,382.75 1782.6094,382.75 Q1781.0938,382.75 1779.8906,382.125 Q1778.9063,381.625 1778.2188,380.5625 Q1777.5313,379.4844 1777.5313,378.2031 L1777.5313,377.0469 Q1777.5313,375.7188 1778.1406,374.5781 Q1778.7656,373.4219 1779.8594,372.8125 Q1780.9531,372.1875 1782.1875,372.1875 Q1782.9219,372.1875 1783.5625,372.3594 Q1784.2188,372.5156 1784.7656,372.875 Z " fill="#000000"/><text fill="#000000" font-family="sans-serif" font-size="12" lengthAdjust="spacing" textLength="182" x="1796" y="381.9102">Kreiranje_informacionih_resursa</text><line style="stroke:#A80036;stroke-width:1.5;" x1="1768" x2="1980" y1="393" y2="393"/><line style="stroke:#A80036;stroke-width:1.5;" x1="1768" x2="1980" y1="401" y2="401"/><!--MD5=[7faef28cc2bb51360ce22bbb0e68a643]
class Izmena_informacionih_resursa--><rect codeLine="76" fill="#FEFECE" filter="url(#f726odl38q04s)" height="48" id="Izmena_informacionih_resursa" style="stroke:#A80036;stroke-width:1.5;" width="204" x="2016" y="361"/><ellipse cx="2031" cy="377" fill="#ADD1B2" rx="11" ry="11" style="stroke:#A80036;stroke-width:1.0;"/><path d="M2033.7656,372.875 Q2033.9219,372.6563 2034.1094,372.5469 Q2034.2969,372.4375 2034.5156,372.4375 Q2034.8906,372.4375 2035.125,372.7031 Q2035.3594,372.9531 2035.3594,373.5625 L2035.3594,375.0156 Q2035.3594,375.625 2035.125,375.8906 Q2034.8906,376.1563 2034.5156,376.1563 Q2034.1719,376.1563 2033.9688,375.9531 Q2033.7656,375.7656 2033.6563,375.25 Q2033.6094,374.8906 2033.4219,374.7031 Q2033.0938,374.3281 2032.4844,374.1094 Q2031.875,373.8906 2031.25,373.8906 Q2030.4844,373.8906 2029.8438,374.2188 Q2029.2188,374.5469 2028.7188,375.2969 Q2028.2344,376.0469 2028.2344,377.0781 L2028.2344,378.1719 Q2028.2344,379.4063 2029.125,380.2344 Q2030.0156,381.0469 2031.6094,381.0469 Q2032.5469,381.0469 2033.2031,380.7969 Q2033.5938,380.6406 2034.0156,380.2031 Q2034.2813,379.9375 2034.4219,379.8594 Q2034.5781,379.7813 2034.7813,379.7813 Q2035.1094,379.7813 2035.3594,380.0469 Q2035.625,380.2969 2035.625,380.6406 Q2035.625,380.9844 2035.2813,381.3906 Q2034.7813,381.9688 2033.9844,382.2969 Q2032.9063,382.75 2031.6094,382.75 Q2030.0938,382.75 2028.8906,382.125 Q2027.9063,381.625 2027.2188,380.5625 Q2026.5313,379.4844 2026.5313,378.2031 L2026.5313,377.0469 Q2026.5313,375.7188 2027.1406,374.5781 Q2027.7656,373.4219 2028.8594,372.8125 Q2029.9531,372.1875 2031.1875,372.1875 Q2031.9219,372.1875 2032.5625,372.3594 Q2033.2188,372.5156 2033.7656,372.875 Z " fill="#000000"/><text fill="#000000" font-family="sans-serif" font-size="12" lengthAdjust="spacing" textLength="172" x="2045" y="381.9102">Izmena_informacionih_resursa</text><line style="stroke:#A80036;stroke-width:1.5;" x1="2017" x2="2219" y1="393" y2="393"/><line style="stroke:#A80036;stroke-width:1.5;" x1="2017" x2="2219" y1="401" y2="401"/><!--MD5=[5bfce63dc6612ecd6abcfb36d750b0b8]
class Pregled_pojedinacnih_informacionih_resursa--><rect codeLine="79" fill="#FEFECE" filter="url(#f726odl38q04s)" height="48" id="Pregled_pojedinacnih_informacionih_resursa" style="stroke:#A80036;stroke-width:1.5;" width="285" x="2255.5" y="361"/><ellipse cx="2270.5" cy="377" fill="#ADD1B2" rx="11" ry="11" style="stroke:#A80036;stroke-width:1.0;"/><path d="M2273.2656,372.875 Q2273.4219,372.6563 2273.6094,372.5469 Q2273.7969,372.4375 2274.0156,372.4375 Q2274.3906,372.4375 2274.625,372.7031 Q2274.8594,372.9531 2274.8594,373.5625 L2274.8594,375.0156 Q2274.8594,375.625 2274.625,375.8906 Q2274.3906,376.1563 2274.0156,376.1563 Q2273.6719,376.1563 2273.4688,375.9531 Q2273.2656,375.7656 2273.1563,375.25 Q2273.1094,374.8906 2272.9219,374.7031 Q2272.5938,374.3281 2271.9844,374.1094 Q2271.375,373.8906 2270.75,373.8906 Q2269.9844,373.8906 2269.3438,374.2188 Q2268.7188,374.5469 2268.2188,375.2969 Q2267.7344,376.0469 2267.7344,377.0781 L2267.7344,378.1719 Q2267.7344,379.4063 2268.625,380.2344 Q2269.5156,381.0469 2271.1094,381.0469 Q2272.0469,381.0469 2272.7031,380.7969 Q2273.0938,380.6406 2273.5156,380.2031 Q2273.7813,379.9375 2273.9219,379.8594 Q2274.0781,379.7813 2274.2813,379.7813 Q2274.6094,379.7813 2274.8594,380.0469 Q2275.125,380.2969 2275.125,380.6406 Q2275.125,380.9844 2274.7813,381.3906 Q2274.2813,381.9688 2273.4844,382.2969 Q2272.4063,382.75 2271.1094,382.75 Q2269.5938,382.75 2268.3906,382.125 Q2267.4063,381.625 2266.7188,380.5625 Q2266.0313,379.4844 2266.0313,378.2031 L2266.0313,377.0469 Q2266.0313,375.7188 2266.6406,374.5781 Q2267.2656,373.4219 2268.3594,372.8125 Q2269.4531,372.1875 2270.6875,372.1875 Q2271.4219,372.1875 2272.0625,372.3594 Q2272.7188,372.5156 2273.2656,372.875 Z " fill="#000000"/><text fill="#000000" font-family="sans-serif" font-size="12" lengthAdjust="spacing" textLength="253" x="2284.5" y="381.9102">Pregled_pojedinacnih_informacionih_resursa</text><line style="stroke:#A80036;stroke-width:1.5;" x1="2256.5" x2="2539.5" y1="393" y2="393"/><line style="stroke:#A80036;stroke-width:1.5;" x1="2256.5" x2="2539.5" y1="401" y2="401"/><!--MD5=[00aa863b3ed1e7aee9c661c846b2a92a]
class Pregled_povezanih_informacionih_resursa--><rect codeLine="82" fill="#FEFECE" filter="url(#f726odl38q04s)" height="48" id="Pregled_povezanih_informacionih_resursa" style="stroke:#A80036;stroke-width:1.5;" width="269" x="2575.5" y="361"/><ellipse cx="2590.5" cy="377" fill="#ADD1B2" rx="11" ry="11" style="stroke:#A80036;stroke-width:1.0;"/><path d="M2593.2656,372.875 Q2593.4219,372.6563 2593.6094,372.5469 Q2593.7969,372.4375 2594.0156,372.4375 Q2594.3906,372.4375 2594.625,372.7031 Q2594.8594,372.9531 2594.8594,373.5625 L2594.8594,375.0156 Q2594.8594,375.625 2594.625,375.8906 Q2594.3906,376.1563 2594.0156,376.1563 Q2593.6719,376.1563 2593.4688,375.9531 Q2593.2656,375.7656 2593.1563,375.25 Q2593.1094,374.8906 2592.9219,374.7031 Q2592.5938,374.3281 2591.9844,374.1094 Q2591.375,373.8906 2590.75,373.8906 Q2589.9844,373.8906 2589.3438,374.2188 Q2588.7188,374.5469 2588.2188,375.2969 Q2587.7344,376.0469 2587.7344,377.0781 L2587.7344,378.1719 Q2587.7344,379.4063 2588.625,380.2344 Q2589.5156,381.0469 2591.1094,381.0469 Q2592.0469,381.0469 2592.7031,380.7969 Q2593.0938,380.6406 2593.5156,380.2031 Q2593.7813,379.9375 2593.9219,379.8594 Q2594.0781,379.7813 2594.2813,379.7813 Q2594.6094,379.7813 2594.8594,380.0469 Q2595.125,380.2969 2595.125,380.6406 Q2595.125,380.9844 2594.7813,381.3906 Q2594.2813,381.9688 2593.4844,382.2969 Q2592.4063,382.75 2591.1094,382.75 Q2589.5938,382.75 2588.3906,382.125 Q2587.4063,381.625 2586.7188,380.5625 Q2586.0313,379.4844 2586.0313,378.2031 L2586.0313,377.0469 Q2586.0313,375.7188 2586.6406,374.5781 Q2587.2656,373.4219 2588.3594,372.8125 Q2589.4531,372.1875 2590.6875,372.1875 Q2591.4219,372.1875 2592.0625,372.3594 Q2592.7188,372.5156 2593.2656,372.875 Z " fill="#000000"/><text fill="#000000" font-family="sans-serif" font-size="12" lengthAdjust="spacing" textLength="237" x="2604.5" y="381.9102">Pregled_povezanih_informacionih_resursa</text><line style="stroke:#A80036;stroke-width:1.5;" x1="2576.5" x2="2843.5" y1="393" y2="393"/><line style="stroke:#A80036;stroke-width:1.5;" x1="2576.5" x2="2843.5" y1="401" y2="401"/><!--MD5=[ad029861632a24668386df99c7d9ba12]
class Brisanje_informacionih_resursa--><rect codeLine="85" fill="#FEFECE" filter="url(#f726odl38q04s)" height="48" id="Brisanje_informacionih_resursa" style="stroke:#A80036;stroke-width:1.5;" width="210" x="1769" y="473"/><ellipse cx="1784" cy="489" fill="#ADD1B2" rx="11" ry="11" style="stroke:#A80036;stroke-width:1.0;"/><path d="M1786.7656,484.875 Q1786.9219,484.6563 1787.1094,484.5469 Q1787.2969,484.4375 1787.5156,484.4375 Q1787.8906,484.4375 1788.125,484.7031 Q1788.3594,484.9531 1788.3594,485.5625 L1788.3594,487.0156 Q1788.3594,487.625 1788.125,487.8906 Q1787.8906,488.1563 1787.5156,488.1563 Q1787.1719,488.1563 1786.9688,487.9531 Q1786.7656,487.7656 1786.6563,487.25 Q1786.6094,486.8906 1786.4219,486.7031 Q1786.0938,486.3281 1785.4844,486.1094 Q1784.875,485.8906 1784.25,485.8906 Q1783.4844,485.8906 1782.8438,486.2188 Q1782.2188,486.5469 1781.7188,487.2969 Q1781.2344,488.0469 1781.2344,489.0781 L1781.2344,490.1719 Q1781.2344,491.4063 1782.125,492.2344 Q1783.0156,493.0469 1784.6094,493.0469 Q1785.5469,493.0469 1786.2031,492.7969 Q1786.5938,492.6406 1787.0156,492.2031 Q1787.2813,491.9375 1787.4219,491.8594 Q1787.5781,491.7813 1787.7813,491.7813 Q1788.1094,491.7813 1788.3594,492.0469 Q1788.625,492.2969 1788.625,492.6406 Q1788.625,492.9844 1788.2813,493.3906 Q1787.7813,493.9688 1786.9844,494.2969 Q1785.9063,494.75 1784.6094,494.75 Q1783.0938,494.75 1781.8906,494.125 Q1780.9063,493.625 1780.2188,492.5625 Q1779.5313,491.4844 1779.5313,490.2031 L1779.5313,489.0469 Q1779.5313,487.7188 1780.1406,486.5781 Q1780.7656,485.4219 1781.8594,484.8125 Q1782.9531,484.1875 1784.1875,484.1875 Q1784.9219,484.1875 1785.5625,484.3594 Q1786.2188,484.5156 1786.7656,484.875 Z " fill="#000000"/><text fill="#000000" font-family="sans-serif" font-size="12" lengthAdjust="spacing" textLength="178" x="1798" y="493.9102">Brisanje_informacionih_resursa</text><line style="stroke:#A80036;stroke-width:1.5;" x1="1770" x2="1978" y1="505" y2="505"/><line style="stroke:#A80036;stroke-width:1.5;" x1="1770" x2="1978" y1="513" y2="513"/><!--MD5=[a73c6302761bb3d991885320e4bc7379]
class Rukovanje_povezanim_informacionim_resursom--><rect codeLine="111" fill="#FEFECE" filter="url(#f726odl38q04s)" height="56.1875" id="Rukovanje_povezanim_informacionim_resursom" style="stroke:#A80036;stroke-width:1.5;" width="303" x="992.5" y="585"/><ellipse cx="1007.5" cy="605.0938" fill="#ADD1B2" rx="11" ry="11" style="stroke:#A80036;stroke-width:1.0;"/><path d="M1010.2656,600.9688 Q1010.4219,600.75 1010.6094,600.6406 Q1010.7969,600.5313 1011.0156,600.5313 Q1011.3906,600.5313 1011.625,600.7969 Q1011.8594,601.0469 1011.8594,601.6563 L1011.8594,603.1094 Q1011.8594,603.7188 1011.625,603.9844 Q1011.3906,604.25 1011.0156,604.25 Q1010.6719,604.25 1010.4688,604.0469 Q1010.2656,603.8594 1010.1563,603.3438 Q1010.1094,602.9844 1009.9219,602.7969 Q1009.5938,602.4219 1008.9844,602.2031 Q1008.375,601.9844 1007.75,601.9844 Q1006.9844,601.9844 1006.3438,602.3125 Q1005.7188,602.6406 1005.2188,603.3906 Q1004.7344,604.1406 1004.7344,605.1719 L1004.7344,606.2656 Q1004.7344,607.5 1005.625,608.3281 Q1006.5156,609.1406 1008.1094,609.1406 Q1009.0469,609.1406 1009.7031,608.8906 Q1010.0938,608.7344 1010.5156,608.2969 Q1010.7813,608.0313 1010.9219,607.9531 Q1011.0781,607.875 1011.2813,607.875 Q1011.6094,607.875 1011.8594,608.1406 Q1012.125,608.3906 1012.125,608.7344 Q1012.125,609.0781 1011.7813,609.4844 Q1011.2813,610.0625 1010.4844,610.3906 Q1009.4063,610.8438 1008.1094,610.8438 Q1006.5938,610.8438 1005.3906,610.2188 Q1004.4063,609.7188 1003.7188,608.6563 Q1003.0313,607.5781 1003.0313,606.2969 L1003.0313,605.1406 Q1003.0313,603.8125 1003.6406,602.6719 Q1004.2656,601.5156 1005.3594,600.9063 Q1006.4531,600.2813 1007.6875,600.2813 Q1008.4219,600.2813 1009.0625,600.4531 Q1009.7188,600.6094 1010.2656,600.9688 Z " fill="#000000"/><text fill="#000000" font-family="sans-serif" font-size="12" font-style="italic" lengthAdjust="spacing" textLength="81" x="1116.5" y="602.457">«requirement»</text><text fill="#000000" font-family="sans-serif" font-size="12" lengthAdjust="spacing" textLength="271" x="1021.5" y="617.5508">Rukovanje_povezanim_informacionim_resursom</text><line style="stroke:#A80036;stroke-width:1.5;" x1="993.5" x2="1294.5" y1="625.1875" y2="625.1875"/><line style="stroke:#A80036;stroke-width:1.5;" x1="993.5" x2="1294.5" y1="633.1875" y2="633.1875"/><!--MD5=[314f21bedd2aaec8c71507dcec038137]
class Korisnik--><rect codeLine="105" fill="#FEFECE" filter="url(#f726odl38q04s)" height="56.1875" id="Korisnik" style="stroke:#A80036;stroke-width:1.5;" width="77" x="2014.5" y="469"/><ellipse cx="2029.5" cy="489.0938" fill="#ADD1B2" rx="11" ry="11" style="stroke:#A80036;stroke-width:1.0;"/><path d="M2032.2656,484.9688 Q2032.4219,484.75 2032.6094,484.6406 Q2032.7969,484.5313 2033.0156,484.5313 Q2033.3906,484.5313 2033.625,484.7969 Q2033.8594,485.0469 2033.8594,485.6563 L2033.8594,487.1094 Q2033.8594,487.7188 2033.625,487.9844 Q2033.3906,488.25 2033.0156,488.25 Q2032.6719,488.25 2032.4688,488.0469 Q2032.2656,487.8594 2032.1563,487.3438 Q2032.1094,486.9844 2031.9219,486.7969 Q2031.5938,486.4219 2030.9844,486.2031 Q2030.375,485.9844 2029.75,485.9844 Q2028.9844,485.9844 2028.3438,486.3125 Q2027.7188,486.6406 2027.2188,487.3906 Q2026.7344,488.1406 2026.7344,489.1719 L2026.7344,490.2656 Q2026.7344,491.5 2027.625,492.3281 Q2028.5156,493.1406 2030.1094,493.1406 Q2031.0469,493.1406 2031.7031,492.8906 Q2032.0938,492.7344 2032.5156,492.2969 Q2032.7813,492.0313 2032.9219,491.9531 Q2033.0781,491.875 2033.2813,491.875 Q2033.6094,491.875 2033.8594,492.1406 Q2034.125,492.3906 2034.125,492.7344 Q2034.125,493.0781 2033.7813,493.4844 Q2033.2813,494.0625 2032.4844,494.3906 Q2031.4063,494.8438 2030.1094,494.8438 Q2028.5938,494.8438 2027.3906,494.2188 Q2026.4063,493.7188 2025.7188,492.6563 Q2025.0313,491.5781 2025.0313,490.2969 L2025.0313,489.1406 Q2025.0313,487.8125 2025.6406,486.6719 Q2026.2656,485.5156 2027.3594,484.9063 Q2028.4531,484.2813 2029.6875,484.2813 Q2030.4219,484.2813 2031.0625,484.4531 Q2031.7188,484.6094 2032.2656,484.9688 Z " fill="#000000"/><text fill="#000000" font-family="sans-serif" font-size="12" font-style="italic" lengthAdjust="spacing" textLength="41" x="2045.5" y="486.457">«actor»</text><text fill="#000000" font-family="sans-serif" font-size="12" lengthAdjust="spacing" textLength="45" x="2043.5" y="501.5508">Korisnik</text><line style="stroke:#A80036;stroke-width:1.5;" x1="2015.5" x2="2090.5" y1="509.1875" y2="509.1875"/><line style="stroke:#A80036;stroke-width:1.5;" x1="2015.5" x2="2090.5" y1="517.1875" y2="517.1875"/><!--MD5=[c67a610e83baa574dfe14d2c45d0e66b]
class Registracija_korisnika--><rect codeLine="4" fill="#FEFECE" filter="url(#f726odl38q04s)" height="56.1875" id="Registracija_korisnika" style="stroke:#A80036;stroke-width:1.5;" width="155" x="314.5" y="7"/><ellipse cx="329.5" cy="27.0938" fill="#ADD1B2" rx="11" ry="11" style="stroke:#A80036;stroke-width:1.0;"/><path d="M332.2656,22.9688 Q332.4219,22.75 332.6094,22.6406 Q332.7969,22.5313 333.0156,22.5313 Q333.3906,22.5313 333.625,22.7969 Q333.8594,23.0469 333.8594,23.6563 L333.8594,25.1094 Q333.8594,25.7188 333.625,25.9844 Q333.3906,26.25 333.0156,26.25 Q332.6719,26.25 332.4688,26.0469 Q332.2656,25.8594 332.1563,25.3438 Q332.1094,24.9844 331.9219,24.7969 Q331.5938,24.4219 330.9844,24.2031 Q330.375,23.9844 329.75,23.9844 Q328.9844,23.9844 328.3438,24.3125 Q327.7188,24.6406 327.2188,25.3906 Q326.7344,26.1406 326.7344,27.1719 L326.7344,28.2656 Q326.7344,29.5 327.625,30.3281 Q328.5156,31.1406 330.1094,31.1406 Q331.0469,31.1406 331.7031,30.8906 Q332.0938,30.7344 332.5156,30.2969 Q332.7813,30.0313 332.9219,29.9531 Q333.0781,29.875 333.2813,29.875 Q333.6094,29.875 333.8594,30.1406 Q334.125,30.3906 334.125,30.7344 Q334.125,31.0781 333.7813,31.4844 Q333.2813,32.0625 332.4844,32.3906 Q331.4063,32.8438 330.1094,32.8438 Q328.5938,32.8438 327.3906,32.2188 Q326.4063,31.7188 325.7188,30.6563 Q325.0313,29.5781 325.0313,28.2969 L325.0313,27.1406 Q325.0313,25.8125 325.6406,24.6719 Q326.2656,23.5156 327.3594,22.9063 Q328.4531,22.2813 329.6875,22.2813 Q330.4219,22.2813 331.0625,22.4531 Q331.7188,22.6094 332.2656,22.9688 Z " fill="#000000"/><text fill="#000000" font-family="sans-serif" font-size="12" font-style="italic" lengthAdjust="spacing" textLength="81" x="364.5" y="24.457">«requirement»</text><text fill="#000000" font-family="sans-serif" font-size="12" lengthAdjust="spacing" textLength="123" x="343.5" y="39.5508">Registracija_korisnika</text><line style="stroke:#A80036;stroke-width:1.5;" x1="315.5" x2="468.5" y1="47.1875" y2="47.1875"/><line style="stroke:#A80036;stroke-width:1.5;" x1="315.5" x2="468.5" y1="55.1875" y2="55.1875"/><!--MD5=[a6e0bc1714011b034639569825d196fd]
class Graficki_intefejs--><rect codeLine="8" fill="#FEFECE" filter="url(#f726odl38q04s)" height="56.1875" id="Graficki_intefejs" style="stroke:#A80036;stroke-width:1.5;" width="120" x="7" y="585"/><ellipse cx="22" cy="605.0938" fill="#ADD1B2" rx="11" ry="11" style="stroke:#A80036;stroke-width:1.0;"/><path d="M24.7656,600.9688 Q24.9219,600.75 25.1094,600.6406 Q25.2969,600.5313 25.5156,600.5313 Q25.8906,600.5313 26.125,600.7969 Q26.3594,601.0469 26.3594,601.6563 L26.3594,603.1094 Q26.3594,603.7188 26.125,603.9844 Q25.8906,604.25 25.5156,604.25 Q25.1719,604.25 24.9688,604.0469 Q24.7656,603.8594 24.6563,603.3438 Q24.6094,602.9844 24.4219,602.7969 Q24.0938,602.4219 23.4844,602.2031 Q22.875,601.9844 22.25,601.9844 Q21.4844,601.9844 20.8438,602.3125 Q20.2188,602.6406 19.7188,603.3906 Q19.2344,604.1406 19.2344,605.1719 L19.2344,606.2656 Q19.2344,607.5 20.125,608.3281 Q21.0156,609.1406 22.6094,609.1406 Q23.5469,609.1406 24.2031,608.8906 Q24.5938,608.7344 25.0156,608.2969 Q25.2813,608.0313 25.4219,607.9531 Q25.5781,607.875 25.7813,607.875 Q26.1094,607.875 26.3594,608.1406 Q26.625,608.3906 26.625,608.7344 Q26.625,609.0781 26.2813,609.4844 Q25.7813,610.0625 24.9844,610.3906 Q23.9063,610.8438 22.6094,610.8438 Q21.0938,610.8438 19.8906,610.2188 Q18.9063,609.7188 18.2188,608.6563 Q17.5313,607.5781 17.5313,606.2969 L17.5313,605.1406 Q17.5313,603.8125 18.1406,602.6719 Q18.7656,601.5156 19.8594,600.9063 Q20.9531,600.2813 22.1875,600.2813 Q22.9219,600.2813 23.5625,600.4531 Q24.2188,600.6094 24.7656,600.9688 Z " fill="#000000"/><text fill="#000000" font-family="sans-serif" font-size="12" font-style="italic" lengthAdjust="spacing" textLength="81" x="39.5" y="602.457">«requirement»</text><text fill="#000000" font-family="sans-serif" font-size="12" lengthAdjust="spacing" textLength="88" x="36" y="617.5508">Graficki_intefejs</text><line style="stroke:#A80036;stroke-width:1.5;" x1="8" x2="126" y1="625.1875" y2="625.1875"/><line style="stroke:#A80036;stroke-width:1.5;" x1="8" x2="126" y1="633.1875" y2="633.1875"/><!--MD5=[441e9f2b47026523f565e4c984c6bc4a]
class Logovanje_korisnika--><rect codeLine="13" fill="#FEFECE" filter="url(#f726odl38q04s)" height="56.1875" id="Logovanje_korisnika" style="stroke:#A80036;stroke-width:1.5;" width="146" x="229" y="245"/><ellipse cx="244" cy="265.0938" fill="#ADD1B2" rx="11" ry="11" style="stroke:#A80036;stroke-width:1.0;"/><path d="M246.7656,260.9688 Q246.9219,260.75 247.1094,260.6406 Q247.2969,260.5313 247.5156,260.5313 Q247.8906,260.5313 248.125,260.7969 Q248.3594,261.0469 248.3594,261.6563 L248.3594,263.1094 Q248.3594,263.7188 248.125,263.9844 Q247.8906,264.25 247.5156,264.25 Q247.1719,264.25 246.9688,264.0469 Q246.7656,263.8594 246.6563,263.3438 Q246.6094,262.9844 246.4219,262.7969 Q246.0938,262.4219 245.4844,262.2031 Q244.875,261.9844 244.25,261.9844 Q243.4844,261.9844 242.8438,262.3125 Q242.2188,262.6406 241.7188,263.3906 Q241.2344,264.1406 241.2344,265.1719 L241.2344,266.2656 Q241.2344,267.5 242.125,268.3281 Q243.0156,269.1406 244.6094,269.1406 Q245.5469,269.1406 246.2031,268.8906 Q246.5938,268.7344 247.0156,268.2969 Q247.2813,268.0313 247.4219,267.9531 Q247.5781,267.875 247.7813,267.875 Q248.1094,267.875 248.3594,268.1406 Q248.625,268.3906 248.625,268.7344 Q248.625,269.0781 248.2813,269.4844 Q247.7813,270.0625 246.9844,270.3906 Q245.9063,270.8438 244.6094,270.8438 Q243.0938,270.8438 241.8906,270.2188 Q240.9063,269.7188 240.2188,268.6563 Q239.5313,267.5781 239.5313,266.2969 L239.5313,265.1406 Q239.5313,263.8125 240.1406,262.6719 Q240.7656,261.5156 241.8594,260.9063 Q242.9531,260.2813 244.1875,260.2813 Q244.9219,260.2813 245.5625,260.4531 Q246.2188,260.6094 246.7656,260.9688 Z " fill="#000000"/><text fill="#000000" font-family="sans-serif" font-size="12" font-style="italic" lengthAdjust="spacing" textLength="81" x="274.5" y="262.457">«requirement»</text><text fill="#000000" font-family="sans-serif" font-size="12" lengthAdjust="spacing" textLength="114" x="258" y="277.5508">Logovanje_korisnika</text><line style="stroke:#A80036;stroke-width:1.5;" x1="230" x2="374" y1="285.1875" y2="285.1875"/><line style="stroke:#A80036;stroke-width:1.5;" x1="230" x2="374" y1="293.1875" y2="293.1875"/><!--MD5=[ccd702c70965f59853b0549e7c916a15]
class Requirement0--><rect codeLine="18" fill="#FEFECE" filter="url(#f726odl38q04s)" height="56.1875" id="Requirement0" style="stroke:#A80036;stroke-width:1.5;" width="111" x="504.5" y="7"/><ellipse cx="519.5" cy="27.0938" fill="#ADD1B2" rx="11" ry="11" style="stroke:#A80036;stroke-width:1.0;"/><path d="M522.2656,22.9688 Q522.4219,22.75 522.6094,22.6406 Q522.7969,22.5313 523.0156,22.5313 Q523.3906,22.5313 523.625,22.7969 Q523.8594,23.0469 523.8594,23.6563 L523.8594,25.1094 Q523.8594,25.7188 523.625,25.9844 Q523.3906,26.25 523.0156,26.25 Q522.6719,26.25 522.4688,26.0469 Q522.2656,25.8594 522.1563,25.3438 Q522.1094,24.9844 521.9219,24.7969 Q521.5938,24.4219 520.9844,24.2031 Q520.375,23.9844 519.75,23.9844 Q518.9844,23.9844 518.3438,24.3125 Q517.7188,24.6406 517.2188,25.3906 Q516.7344,26.1406 516.7344,27.1719 L516.7344,28.2656 Q516.7344,29.5 517.625,30.3281 Q518.5156,31.1406 520.1094,31.1406 Q521.0469,31.1406 521.7031,30.8906 Q522.0938,30.7344 522.5156,30.2969 Q522.7813,30.0313 522.9219,29.9531 Q523.0781,29.875 523.2813,29.875 Q523.6094,29.875 523.8594,30.1406 Q524.125,30.3906 524.125,30.7344 Q524.125,31.0781 523.7813,31.4844 Q523.2813,32.0625 522.4844,32.3906 Q521.4063,32.8438 520.1094,32.8438 Q518.5938,32.8438 517.3906,32.2188 Q516.4063,31.7188 515.7188,30.6563 Q515.0313,29.5781 515.0313,28.2969 L515.0313,27.1406 Q515.0313,25.8125 515.6406,24.6719 Q516.2656,23.5156 517.3594,22.9063 Q518.4531,22.2813 519.6875,22.2813 Q520.4219,22.2813 521.0625,22.4531 Q521.7188,22.6094 522.2656,22.9688 Z " fill="#000000"/><text fill="#000000" font-family="sans-serif" font-size="12" font-style="italic" lengthAdjust="spacing" textLength="81" x="532.5" y="24.457">«requirement»</text><text fill="#000000" font-family="sans-serif" font-size="12" lengthAdjust="spacing" textLength="79" x="533.5" y="39.5508">Requirement0</text><line style="stroke:#A80036;stroke-width:1.5;" x1="505.5" x2="614.5" y1="47.1875" y2="47.1875"/><line style="stroke:#A80036;stroke-width:1.5;" x1="505.5" x2="614.5" y1="55.1875" y2="55.1875"/><!--MD5=[0b617f150c9ccf74cc89a099148abbb8]
reverse link Rukovanje_tipovima_informacionih_resursa to Registracija_korisnika--><path codeLine="6" d="M1383.09,844.66 C1785.5,828.71 2898,777.75 2898,702 C2898,184 2898,184 2898,184 C2898,49.89 619.32,84.83 487,63 C481.33,62.06 475.52,60.91 469.7,59.61 " fill="none" id="Rukovanje_tipovima_informacionih_resursa-backto-Registracija_korisnika" style="stroke:#A80036;stroke-width:1.0;stroke-dasharray:7.0,7.0;"/><polygon fill="#A80036" points="1377.8,844.87,1386.9423,848.5332,1382.7966,844.6844,1386.6453,840.5387,1377.8,844.87" style="stroke:#A80036;stroke-width:1.0;"/><!--MD5=[a152cd747617226cfea2654d14f1dc67]
reverse link Logovanje_korisnika to Graficki_intefejs--><path codeLine="10" d="M229.64,303.49 C202.77,317.49 174,336.59 154,361 C98.17,429.13 77.22,535.32 70.18,584.85 " fill="none" id="Logovanje_korisnika-backto-Graficki_intefejs" style="stroke:#A80036;stroke-width:1.0;stroke-dasharray:7.0,7.0;"/><polygon fill="#A80036" points="234.28,301.11,224.4471,301.6704,229.8339,303.3974,228.1069,308.7842,234.28,301.11" style="stroke:#A80036;stroke-width:1.0;"/><!--MD5=[1f1ea8957dcbf99bd8c091304edc07db]
reverse link Registracija_korisnika to Graficki_intefejs--><path codeLine="11" d="M309.07,36.02 C204.44,40.91 38,67.07 38,184 C38,184 38,184 38,386 C38,458.19 52.74,542.31 61.2,584.66 " fill="none" id="Registracija_korisnika-backto-Graficki_intefejs" style="stroke:#A80036;stroke-width:1.0;stroke-dasharray:7.0,7.0;"/><polygon fill="#A80036" points="314.31,35.79,305.1465,32.1802,309.3146,36.0047,305.4901,40.1728,314.31,35.79" style="stroke:#A80036;stroke-width:1.0;"/><!--MD5=[e6b9d03acd66978d21f92f14d8bc16a6]
reverse link Registracija_korisnika to Logovanje_korisnika--><path codeLine="15" d="M379.79,68.03 C361.94,114.81 329.06,201.04 312.34,244.88 " fill="none" id="Registracija_korisnika-backto-Logovanje_korisnika" style="stroke:#A80036;stroke-width:1.0;stroke-dasharray:7.0,7.0;"/><polygon fill="#A80036" points="381.68,63.07,374.7301,70.0485,379.8947,67.7404,382.2027,72.905,381.68,63.07" style="stroke:#A80036;stroke-width:1.0;"/><!--MD5=[c7d3fc40366b139718e547c29142f824]
reverse link Rukovanje_tipovima_informacionih_resursa to Logovanje_korisnika--><path codeLine="16" d="M1097.16,844.63 C807.88,831.83 180,793.53 180,702 C180,496 180,496 180,496 C180,417.5 239.31,340.54 275.23,301.14 " fill="none" id="Rukovanje_tipovima_informacionih_resursa-backto-Logovanje_korisnika" style="stroke:#A80036;stroke-width:1.0;stroke-dasharray:7.0,7.0;"/><polygon fill="#A80036" points="1102.24,844.85,1093.4195,840.4683,1097.2446,844.6359,1093.077,848.461,1102.24,844.85" style="stroke:#A80036;stroke-width:1.0;"/><!--MD5=[87064e1f98dc95c06eea4474b11faadc]
reverse link Registracija_korisnika to Administracija_pristupa_informacionih_resursa--><path codeLine="36" d="M404.48,68.05 C414.88,97.66 428,143.13 428,184 C428,184 428,184 428,386 C428,476.77 519.6,548.19 578.82,584.88 " fill="none" id="Registracija_korisnika-backto-Administracija_pristupa_informacionih_resursa" style="stroke:#A80036;stroke-width:1.0;stroke-dasharray:7.0,7.0;"/><polygon fill="#A80036" points="402.7,63.07,401.9638,72.8913,404.3835,67.7781,409.4967,70.1977,402.7,63.07" style="stroke:#A80036;stroke-width:1.0;"/><!--MD5=[6febb97d368f1eab834a1a5a4d935d64]
reverse link Logovanje_korisnika to Administracija_pristupa_informacionih_resursa--><path codeLine="37" d="M274.37,306.28 C263.28,358.96 287.95,463.67 350,525 C384.16,558.77 432.85,579.72 480.91,592.58 " fill="none" id="Logovanje_korisnika-backto-Administracija_pristupa_informacionih_resursa" style="stroke:#A80036;stroke-width:1.0;stroke-dasharray:7.0,7.0;"/><polygon fill="#A80036" points="275.55,301.35,269.5566,309.1653,274.381,306.2114,277.3349,311.0358,275.55,301.35" style="stroke:#A80036;stroke-width:1.0;"/><!--MD5=[6febb97d368f1eab834a1a5a4d935d64]
reverse link Logovanje_korisnika to Administracija_pristupa_informacionih_resursa--><path codeLine="38" d="M295.96,306.6 C298.38,359.38 323.07,463.79 385,525 C413.11,552.78 451.04,571.89 488.64,584.95 " fill="none" id="Logovanje_korisnika-backto-Administracija_pristupa_informacionih_resursa-1" style="stroke:#A80036;stroke-width:1.0;stroke-dasharray:7.0,7.0;"/><polygon fill="#A80036" points="295.79,301.35,292.0747,310.4712,295.9471,306.3475,300.0707,310.2199,295.79,301.35" style="stroke:#A80036;stroke-width:1.0;"/><!--MD5=[6febb97d368f1eab834a1a5a4d935d64]
reverse link Logovanje_korisnika to Administracija_pristupa_informacionih_resursa--><path codeLine="39" d="M317.52,306.28 C333.28,358.96 357.95,463.67 420,525 C448.11,552.78 486.04,571.89 521.91,584.95 " fill="none" id="Logovanje_korisnika-backto-Administracija_pristupa_informacionih_resursa-2" style="stroke:#A80036;stroke-width:1.0;stroke-dasharray:7.0,7.0;"/><polygon fill="#A80036" points="316.02,301.35,314.8149,311.1249,317.4764,306.1332,322.468,308.7947,316.02,301.35" style="stroke:#A80036;stroke-width:1.0;"/><!--MD5=[6febb97d368f1eab834a1a5a4d935d64]
reverse link Logovanje_korisnika to Administracija_pristupa_informacionih_resursa--><path codeLine="40" d="M338.92,305.96 C368.18,358.54 392.82,463.54 455,525 C483.11,552.78 521.04,571.89 555.18,584.95 " fill="none" id="Logovanje_korisnika-backto-Administracija_pristupa_informacionih_resursa-3" style="stroke:#A80036;stroke-width:1.0;stroke-dasharray:7.0,7.0;"/><polygon fill="#A80036" points="336.26,301.35,337.2974,311.1441,338.7607,305.6797,344.225,307.143,336.26,301.35" style="stroke:#A80036;stroke-width:1.0;"/><!--MD5=[cb3cd3d52d15913e0e1f53ae61be49b9]
reverse link Kreiranje_razlicitih_tipova_informacionih_resursa to Izmene_i_brisanje_razlicitih_tipova_informacionih_resursa--><path codeLine="53" d="M1012.17,303.11 C1119.96,350.62 1368.22,447.29 1580,525 C1636.33,545.67 1700.23,568.06 1753.8,584.95 " fill="none" id="Kreiranje_razlicitih_tipova_informacionih_resursa-backto-Izmene_i_brisanje_razlicitih_tipova_informacionih_resursa" style="stroke:#A80036;stroke-width:1.0;stroke-dasharray:7.0,7.0;"/><polygon fill="#A80036" points="1007.46,301.03,1014.064,308.3367,1012.0302,303.058,1017.3089,301.0243,1007.46,301.03" style="stroke:#A80036;stroke-width:1.0;"/><!--MD5=[cb3cd3d52d15913e0e1f53ae61be49b9]
reverse link Kreiranje_razlicitih_tipova_informacionih_resursa to Izmene_i_brisanje_razlicitih_tipova_informacionih_resursa--><path codeLine="54" d="M1033.55,302.97 C1154.47,350.42 1403.01,447.21 1615,525 C1671.33,545.67 1735.23,568.06 1784.05,584.95 " fill="none" id="Kreiranje_razlicitih_tipova_informacionih_resursa-backto-Izmene_i_brisanje_razlicitih_tipova_informacionih_resursa-1" style="stroke:#A80036;stroke-width:1.0;stroke-dasharray:7.0,7.0;"/><polygon fill="#A80036" points="1028.6,301.03,1035.5081,308.0498,1033.2522,302.8622,1038.4397,300.6063,1028.6,301.03" style="stroke:#A80036;stroke-width:1.0;"/><!--MD5=[3de80ec2274ae5c155a7db19fe4ba4fd]
reverse link Izmene_i_brisanje_razlicitih_tipova_informacionih_resursa to Kreiranje_razlicitih_tipova_informacionih_resursa--><path codeLine="66" d="M1809.59,583.15 C1765.74,566.49 1704.35,544.94 1650,525 C1435.07,446.14 1182.57,347.74 1049.74,301.03 " fill="none" id="Izmene_i_brisanje_razlicitih_tipova_informacionih_resursa-backto-Kreiranje_razlicitih_tipova_informacionih_resursa" style="stroke:#A80036;stroke-width:1.0;stroke-dasharray:7.0,7.0;"/><polygon fill="#A80036" points="1814.31,584.95,1807.3315,578.0001,1809.6396,583.1647,1804.475,585.4727,1814.31,584.95" style="stroke:#A80036;stroke-width:1.0;"/><!--MD5=[3a19da4d7cb9bdb8e8c00f81a8947e16]
reverse link Preuzimanje_razlicitih_tipova_informacionih_resursa to Izmene_i_brisanje_razlicitih_tipova_informacionih_resursa--><path codeLine="55" d="M1355.58,303.89 C1430.11,351.54 1581.01,447.26 1711,525 C1745.31,545.52 1784.48,567.92 1814.46,584.85 " fill="none" id="Preuzimanje_razlicitih_tipova_informacionih_resursa-backto-Izmene_i_brisanje_razlicitih_tipova_informacionih_resursa" style="stroke:#A80036;stroke-width:1.0;stroke-dasharray:7.0,7.0;"/><polygon fill="#A80036" points="1351.21,301.1,1356.6303,309.3232,1355.4201,303.7973,1360.9459,302.5871,1351.21,301.1" style="stroke:#A80036;stroke-width:1.0;"/><!--MD5=[33b21ac85a6eeacb4c63a8c6a2bad7e3]
reverse link Pretraga_razlicitih_tipova_informacionih_resursa to Izmene_i_brisanje_razlicitih_tipova_informacionih_resursa--><path codeLine="56" d="M1662.47,306.26 C1673.83,356.81 1701.12,456.04 1752,525 C1769.59,548.84 1795.35,569.58 1817.63,584.82 " fill="none" id="Pretraga_razlicitih_tipova_informacionih_resursa-backto-Izmene_i_brisanje_razlicitih_tipova_informacionih_resursa" style="stroke:#A80036;stroke-width:1.0;stroke-dasharray:7.0,7.0;"/><polygon fill="#A80036" points="1661.36,301.22,1659.3807,310.8679,1662.431,306.1039,1667.195,309.1543,1661.36,301.22" style="stroke:#A80036;stroke-width:1.0;"/><!--MD5=[35a65894f082f515bd1eaeba596aa63b]
reverse link Graficki_intefejs to Pokretanje--><path codeLine="60" d="M132.1,592.22 C258.86,555.08 546.48,487.28 775.5,555 C795.74,560.99 815.7,573.14 831.62,584.79 " fill="none" id="Graficki_intefejs-backto-Pokretanje" style="stroke:#A80036;stroke-width:1.0;stroke-dasharray:7.0,7.0;"/><polygon fill="#A80036" points="127.29,593.63,137.0536,594.9232,132.0861,592.2169,134.7925,587.2494,127.29,593.63" style="stroke:#A80036;stroke-width:1.0;"/><!--MD5=[33df15dcf9e504d6c13a997c6796da56]
reverse link Prekid_rada to Pokretanje--><path codeLine="61" d="M566.08,304.9 C629.9,370.47 777.99,522.61 838.51,584.78 " fill="none" id="Prekid_rada-backto-Pokretanje" style="stroke:#A80036;stroke-width:1.0;stroke-dasharray:7.0,7.0;"/><polygon fill="#A80036" points="562.37,301.09,565.7752,310.3315,565.8552,304.6752,571.5115,304.7552,562.37,301.09" style="stroke:#A80036;stroke-width:1.0;"/><!--MD5=[02208c7a0c4f4260e47c1860022cf1e6]
reverse link Spustanje_aplikacije to Pokretanje--><path codeLine="62" d="M714.56,305.69 C746.97,371.68 821.22,522.85 851.63,584.78 " fill="none" id="Spustanje_aplikacije-backto-Pokretanje" style="stroke:#A80036;stroke-width:1.0;stroke-dasharray:7.0,7.0;"/><polygon fill="#A80036" points="712.3,301.09,712.6717,310.9318,714.5017,305.5792,719.8544,307.4091,712.3,301.09" style="stroke:#A80036;stroke-width:1.0;"/><!--MD5=[5af8156cbf30706d8f7a70f36f6b2a34]
reverse link Rukovalac_informacionih_resursa to Rukovalac_informacionih_resursa--><path codeLine="72" d="M2734,271.14 C2745.98,271.53 2753.5,272.15 2753.5,273 C2753.5,274.17 2739.26,274.91 2718.75,275.21 " fill="none" id="Rukovalac_informacionih_resursa-backto-Rukovalac_informacionih_resursa" style="stroke:#A80036;stroke-width:1.0;"/><ellipse cx="2726.7479" cy="270.9728" fill="#FFFFFF" rx="8" ry="8" style="stroke:#A80036;stroke-width:1.0;"/><line style="stroke:#A80036;stroke-width:1.0;" x1="2734.7458" x2="2718.75" y1="271.1556" y2="270.79"/><line style="stroke:#A80036;stroke-width:1.0;" x1="2726.5651" x2="2726.9307" y1="278.9707" y2="262.9749"/><!--MD5=[5af8156cbf30706d8f7a70f36f6b2a34]
reverse link Rukovalac_informacionih_resursa to Rukovalac_informacionih_resursa--><path codeLine="75" d="M2733.73,268.38 C2765.24,268.76 2788.5,270.3 2788.5,273 C2788.5,276.12 2757.57,277.69 2718.73,277.71 " fill="none" id="Rukovalac_informacionih_resursa-backto-Rukovalac_informacionih_resursa-1" style="stroke:#A80036;stroke-width:1.0;"/><ellipse cx="2726.7299" cy="268.3357" fill="#FFFFFF" rx="8" ry="8" style="stroke:#A80036;stroke-width:1.0;"/><line style="stroke:#A80036;stroke-width:1.0;" x1="2734.7297" x2="2718.73" y1="268.3814" y2="268.29"/><line style="stroke:#A80036;stroke-width:1.0;" x1="2726.6842" x2="2726.7756" y1="276.3356" y2="260.3358"/><!--MD5=[5af8156cbf30706d8f7a70f36f6b2a34]
reverse link Rukovalac_informacionih_resursa to Rukovalac_informacionih_resursa--><path codeLine="78" d="M2733.88,265.94 C2783.11,265.74 2823.5,268.09 2823.5,273 C2823.5,278.4 2774.54,280.71 2718.71,279.92 " fill="none" id="Rukovalac_informacionih_resursa-backto-Rukovalac_informacionih_resursa-2" style="stroke:#A80036;stroke-width:1.0;"/><ellipse cx="2726.7096" cy="266.0038" fill="#FFFFFF" rx="8" ry="8" style="stroke:#A80036;stroke-width:1.0;"/><line style="stroke:#A80036;stroke-width:1.0;" x1="2734.7093" x2="2718.71" y1="265.9276" y2="266.08"/><line style="stroke:#A80036;stroke-width:1.0;" x1="2726.7858" x2="2726.6335" y1="274.0035" y2="258.0042"/><!--MD5=[5af8156cbf30706d8f7a70f36f6b2a34]
reverse link Rukovalac_informacionih_resursa to Rukovalac_informacionih_resursa--><path codeLine="81" d="M2733.74,263.84 C2799.77,262.61 2858.5,265.66 2858.5,273 C2858.5,280.89 2790.55,283.83 2718.65,281.81 " fill="none" id="Rukovalac_informacionih_resursa-backto-Rukovalac_informacionih_resursa-3" style="stroke:#A80036;stroke-width:1.0;"/><ellipse cx="2726.6477" cy="263.9996" fill="#FFFFFF" rx="8" ry="8" style="stroke:#A80036;stroke-width:1.0;"/><line style="stroke:#A80036;stroke-width:1.0;" x1="2734.6455" x2="2718.65" y1="263.8092" y2="264.19"/><line style="stroke:#A80036;stroke-width:1.0;" x1="2726.8382" x2="2726.4573" y1="271.9973" y2="256.0018"/><!--MD5=[5af8156cbf30706d8f7a70f36f6b2a34]
reverse link Rukovalac_informacionih_resursa to Rukovalac_informacionih_resursa--><path codeLine="84" d="M2733.75,262.02 C2815.74,259.43 2893.5,263.09 2893.5,273 C2893.5,283.51 2805.94,286.99 2718.68,283.44 " fill="none" id="Rukovalac_informacionih_resursa-backto-Rukovalac_informacionih_resursa-4" style="stroke:#A80036;stroke-width:1.0;"/><ellipse cx="2726.6748" cy="262.2707" fill="#FFFFFF" rx="8" ry="8" style="stroke:#A80036;stroke-width:1.0;"/><line style="stroke:#A80036;stroke-width:1.0;" x1="2734.6695" x2="2718.68" y1="261.9813" y2="262.56"/><line style="stroke:#A80036;stroke-width:1.0;" x1="2726.9641" x2="2726.3854" y1="270.2654" y2="254.2759"/><!--MD5=[5af8156cbf30706d8f7a70f36f6b2a34]
reverse link Rukovalac_informacionih_resursa to Rukovalac_informacionih_resursa--><path codeLine="87" d="M2734.02,260.42 C2831.29,256.24 2928.5,260.44 2928.5,273 C2928.5,286.22 2820.83,290.17 2718.73,284.85 " fill="none" id="Rukovalac_informacionih_resursa-backto-Rukovalac_informacionih_resursa-5" style="stroke:#A80036;stroke-width:1.0;"/><ellipse cx="2726.7209" cy="260.7691" fill="#FFFFFF" rx="8" ry="8" style="stroke:#A80036;stroke-width:1.0;"/><line style="stroke:#A80036;stroke-width:1.0;" x1="2734.7119" x2="2718.73" y1="260.3882" y2="261.15"/><line style="stroke:#A80036;stroke-width:1.0;" x1="2727.1018" x2="2726.34" y1="268.76" y2="252.7782"/><!--MD5=[5af8156cbf30706d8f7a70f36f6b2a34]
reverse link Rukovalac_informacionih_resursa to Rukovalac_informacionih_resursa--><path codeLine="90" d="M2733.75,259.04 C2846.02,253.03 2963.5,257.68 2963.5,273 C2963.5,289.01 2835.23,293.37 2718.67,286.08 " fill="none" id="Rukovalac_informacionih_resursa-backto-Rukovalac_informacionih_resursa-6" style="stroke:#A80036;stroke-width:1.0;"/><ellipse cx="2726.6565" cy="259.4551" fill="#FFFFFF" rx="8" ry="8" style="stroke:#A80036;stroke-width:1.0;"/><line style="stroke:#A80036;stroke-width:1.0;" x1="2734.643" x2="2718.67" y1="258.9903" y2="259.92"/><line style="stroke:#A80036;stroke-width:1.0;" x1="2727.1213" x2="2726.1916" y1="267.4416" y2="251.4687"/><!--MD5=[ec24b480f575e9a59da2be25061640bf]
reverse link Administracija_pristupa_informacionih_resursa to Rukovanje_tipovima_informacionih_resursa--><path codeLine="94" d="M672.13,643.56 C730.51,675.68 835.74,727.22 930,763 C991.39,786.3 1061.9,807.41 1120.28,822.99 " fill="none" id="Administracija_pristupa_informacionih_resursa-backto-Rukovanje_tipovima_informacionih_resursa" style="stroke:#A80036;stroke-width:1.0;stroke-dasharray:7.0,7.0;"/><polygon fill="#A80036" points="667.66,641.09,673.6153,648.9344,672.0402,643.5012,677.4733,641.9261,667.66,641.09" style="stroke:#A80036;stroke-width:1.0;"/><!--MD5=[ec24b480f575e9a59da2be25061640bf]
reverse link Administracija_pristupa_informacionih_resursa to Rukovanje_tipovima_informacionih_resursa--><path codeLine="102" d="M697.36,643.36 C765.08,675.48 870.55,727.14 965,763 C1026.39,786.3 1096.9,807.41 1151.32,822.99 " fill="none" id="Administracija_pristupa_informacionih_resursa-backto-Rukovanje_tipovima_informacionih_resursa-1" style="stroke:#A80036;stroke-width:1.0;stroke-dasharray:7.0,7.0;"/><polygon fill="#A80036" points="692.55,641.09,698.9936,648.5385,697.0751,643.2169,702.3967,641.2984,692.55,641.09" style="stroke:#A80036;stroke-width:1.0;"/><!--MD5=[8899e1da2799495f74d5b41b00c11c93]
reverse link Izmene_i_brisanje_razlicitih_tipova_informacionih_resursa to Rukovanje_tipovima_informacionih_resursa--><path codeLine="95" d="M1769,642.82 C1636.43,688.78 1400.98,778.02 1294.1,822.88 " fill="none" id="Izmene_i_brisanje_razlicitih_tipova_informacionih_resursa-backto-Rukovanje_tipovima_informacionih_resursa" style="stroke:#A80036;stroke-width:1.0;stroke-dasharray:7.0,7.0;"/><polygon fill="#A80036" points="1774.06,641.07,1764.248,640.2188,1769.3325,642.6982,1766.8531,647.7827,1774.06,641.07" style="stroke:#A80036;stroke-width:1.0;"/><!--MD5=[8899e1da2799495f74d5b41b00c11c93]
reverse link Izmene_i_brisanje_razlicitih_tipova_informacionih_resursa to Rukovanje_tipovima_informacionih_resursa--><path codeLine="101" d="M1786.55,642.96 C1665.13,688.95 1429.89,778.07 1311.59,822.88 " fill="none" id="Izmene_i_brisanje_razlicitih_tipova_informacionih_resursa-backto-Rukovanje_tipovima_informacionih_resursa-1" style="stroke:#A80036;stroke-width:1.0;stroke-dasharray:7.0,7.0;"/><polygon fill="#A80036" points="1791.53,641.07,1781.6965,640.521,1786.8548,642.8428,1784.533,648.0012,1791.53,641.07" style="stroke:#A80036;stroke-width:1.0;"/><!--MD5=[8899e1da2799495f74d5b41b00c11c93]
reverse link Izmene_i_brisanje_razlicitih_tipova_informacionih_resursa to Rukovanje_tipovima_informacionih_resursa--><path codeLine="103" d="M1804.17,643.1 C1693.76,689.16 1458.45,778.23 1328.81,822.97 " fill="none" id="Izmene_i_brisanje_razlicitih_tipova_informacionih_resursa-backto-Rukovanje_tipovima_informacionih_resursa-2" style="stroke:#A80036;stroke-width:1.0;stroke-dasharray:7.0,7.0;"/><polygon fill="#A80036" points="1809.01,641.07,1799.1636,640.85,1804.3967,642.9981,1802.2486,648.2313,1809.01,641.07" style="stroke:#A80036;stroke-width:1.0;"/><!--MD5=[4a3d17ede0ca80cc6d52303a7b20ada4]
reverse link Rukovanje_povezanim_informacionim_resursom to Rukovanje_tipovima_informacionih_resursa--><path codeLine="96" d="M1147.96,646.03 C1161.9,692.81 1197.17,779.04 1220.47,822.88 " fill="none" id="Rukovanje_povezanim_informacionim_resursom-backto-Rukovanje_tipovima_informacionih_resursa" style="stroke:#A80036;stroke-width:1.0;stroke-dasharray:7.0,7.0;"/><polygon fill="#A80036" points="1146.52,641.07,1145.1732,650.8263,1147.9068,645.8738,1152.8593,648.6074,1146.52,641.07" style="stroke:#A80036;stroke-width:1.0;"/><!--MD5=[4a3d17ede0ca80cc6d52303a7b20ada4]
reverse link Rukovanje_povezanim_informacionim_resursom to Rukovanje_tipovima_informacionih_resursa--><path codeLine="100" d="M1166.48,645.74 C1190.91,692.47 1225.91,778.96 1237.96,822.88 " fill="none" id="Rukovanje_povezanim_informacionim_resursom-backto-Rukovanje_tipovima_informacionih_resursa-1" style="stroke:#A80036;stroke-width:1.0;stroke-dasharray:7.0,7.0;"/><polygon fill="#A80036" points="1164,641.07,1164.6861,650.8949,1166.344,645.4865,1171.7525,647.1445,1164,641.07" style="stroke:#A80036;stroke-width:1.0;"/><!--MD5=[8318895b9bc5f2fb7422858d8402a858]
reverse link Rukovanje_pojedinacnim_informacionim_resursom to Rukovanje_tipovima_informacionih_resursa--><path codeLine="97" d="M1448.98,644.34 C1394.57,690.71 1301.69,778.51 1260.23,822.88 " fill="none" id="Rukovanje_pojedinacnim_informacionim_resursom-backto-Rukovanje_tipovima_informacionih_resursa" style="stroke:#A80036;stroke-width:1.0;stroke-dasharray:7.0,7.0;"/><polygon fill="#A80036" points="1452.83,641.07,1443.3762,643.8315,1449.0136,644.3004,1448.5448,649.9377,1452.83,641.07" style="stroke:#A80036;stroke-width:1.0;"/><!--MD5=[8318895b9bc5f2fb7422858d8402a858]
reverse link Rukovanje_pojedinacnim_informacionim_resursom to Rukovanje_tipovima_informacionih_resursa--><path codeLine="99" d="M1466.74,644.9 C1422.99,691.42 1330.38,778.69 1277.72,822.88 " fill="none" id="Rukovanje_pojedinacnim_informacionim_resursom-backto-Rukovanje_tipovima_informacionih_resursa-1" style="stroke:#A80036;stroke-width:1.0;stroke-dasharray:7.0,7.0;"/><polygon fill="#A80036" points="1470.31,641.07,1461.2444,644.919,1466.8979,644.7248,1467.0921,650.3783,1470.31,641.07" style="stroke:#A80036;stroke-width:1.0;"/><!--MD5=[db10d5c4eefee8d96ce7d45fa5110bd8]
reverse link Kreiranje_razlicitih_tipova_informacionih_resursa to Rukovanje_tipovima_informacionih_resursa--><path codeLine="98" d="M959.05,306.43 C957.87,349.67 956,428.58 956,496 C956,496 956,496 956,702 C956,774.56 1029.8,811.6 1102.16,830.48 " fill="none" id="Kreiranje_razlicitih_tipova_informacionih_resursa-backto-Rukovanje_tipovima_informacionih_resursa" style="stroke:#A80036;stroke-width:1.0;stroke-dasharray:7.0,7.0;"/><polygon fill="#A80036" points="959.19,301.34,954.9346,310.2221,959.0472,306.338,962.9313,310.4506,959.19,301.34" style="stroke:#A80036;stroke-width:1.0;"/><!--MD5=[d82e8f05e65075f77f30d5867886f83b]
link Mogucnost_sortiranja to Cross_platform--><!--MD5=[955e49494ea463c0abd92674b888b2f4]
link Cross_platform to Sistemski_sat--><!--MD5=[88f60092f4ef3e83a6eda93b871b9806]
link Sistemski_sat to Cuvanje_stanja--><!--MD5=[97701725c02dbb59b5eee2636c2f988d]
link Mogucnost_sortiranja to Kreiranje_informacionih_resursa--><!--MD5=[054ef499d1b2ebc4c96010453a8bf774]
link Kreiranje_informacionih_resursa to Izmena_informacionih_resursa--><!--MD5=[67fe938db3e263c1f77be61235af5a1a]
link Izmena_informacionih_resursa to Pregled_pojedinacnih_informacionih_resursa--><!--MD5=[1a888166aef2439a7c47f6185ae819b8]
link Pregled_pojedinacnih_informacionih_resursa to Pregled_povezanih_informacionih_resursa--><!--MD5=[e2e17fd5fce32e6a847e3038a767d4f4]
link Kreiranje_informacionih_resursa to Brisanje_informacionih_resursa--><!--MD5=[7446a8f310dafc82c4f53e3d6862ad2e]
link Brisanje_informacionih_resursa to Korisnik--><!--MD5=[8b5ae4e6413f54538fc743f5ce91aafe]
@startuml
skinparam classAttributeIconSize 0
!pragma useNewPackage

class Registracija_korisnika <<requirement>> {
}
Registracija_korisnika .up...> Funkcionalnost::Rukovanje_tipovima_informacionih_resursa

class Graficki_intefejs <<requirement>> {
}
Graficki_intefejs .up...> Logovanje_korisnika
Graficki_intefejs .up...> Registracija_korisnika

class Logovanje_korisnika <<requirement>> {
}
Logovanje_korisnika .up...> Registracija_korisnika
Logovanje_korisnika .up...> Funkcionalnost::Rukovanje_tipovima_informacionih_resursa

class Requirement0 <<requirement>> {
}

package Funkcionalnost {
  class Preuzimanje_razlicitih_tipova_informacionih_resursa <<requirement>> {
  }
  
  class Mogucnost_sortiranja <<requirement>> {
  }
  
  class Cross_platform <<requirement>> {
  }
  
  class Sistemski_sat <<actor>> {
  }
  
  class Administracija_pristupa_informacionih_resursa <<requirement>> {
  }
  Administracija_pristupa_informacionih_resursa .up...> Registracija_korisnika
  Administracija_pristupa_informacionih_resursa .up...> Logovanje_korisnika
  Administracija_pristupa_informacionih_resursa .up...> Logovanje_korisnika
  Administracija_pristupa_informacionih_resursa .up...> Logovanje_korisnika
  Administracija_pristupa_informacionih_resursa .up...> Logovanje_korisnika
  
  class Spustanje_aplikacije <<requirement>> {
  }
  
  class Rukovanje_pojedinacnim_informacionim_resursom <<requirement>> {
  }
  
  class Prekid_rada <<requirement>> {
  }
  
  class Izmene_i_brisanje_razlicitih_tipova_informacionih_resursa <<requirement>> {
  }
  Izmene_i_brisanje_razlicitih_tipova_informacionih_resursa .up...> Funkcionalnost::Kreiranje_razlicitih_tipova_informacionih_resursa
  Izmene_i_brisanje_razlicitih_tipova_informacionih_resursa .up...> Funkcionalnost::Kreiranje_razlicitih_tipova_informacionih_resursa
  Izmene_i_brisanje_razlicitih_tipova_informacionih_resursa .up...> Funkcionalnost::Preuzimanje_razlicitih_tipova_informacionih_resursa
  Izmene_i_brisanje_razlicitih_tipova_informacionih_resursa .up...> Funkcionalnost::Pretraga_razlicitih_tipova_informacionih_resursa
  
  class Pokretanje <<requirement>> {
  }
  Pokretanje .up...> Graficki_intefejs
  Pokretanje .up...> Funkcionalnost::Prekid_rada
  Pokretanje .up...> Funkcionalnost::Spustanje_aplikacije
  
  class Kreiranje_razlicitih_tipova_informacionih_resursa <<requirement>> {
  }
  Kreiranje_razlicitih_tipova_informacionih_resursa .up...> Funkcionalnost::Izmene_i_brisanje_razlicitih_tipova_informacionih_resursa
  
  class Rukovalac_informacionih_resursa {
  }
  class Cuvanje_stanja {
  }
  Rukovalac_informacionih_resursa +-right- Funkcionalnost::Rukovalac_informacionih_resursa::Cuvanje_stanja
  class Kreiranje_informacionih_resursa {
  }
  Rukovalac_informacionih_resursa +-right- Funkcionalnost::Rukovalac_informacionih_resursa::Kreiranje_informacionih_resursa
  class Izmena_informacionih_resursa {
  }
  Rukovalac_informacionih_resursa +-right- Funkcionalnost::Rukovalac_informacionih_resursa::Izmena_informacionih_resursa
  class Pregled_pojedinacnih_informacionih_resursa {
  }
  Rukovalac_informacionih_resursa +-right- Funkcionalnost::Rukovalac_informacionih_resursa::Pregled_pojedinacnih_informacionih_resursa
  class Pregled_povezanih_informacionih_resursa {
  }
  Rukovalac_informacionih_resursa +-right- Funkcionalnost::Rukovalac_informacionih_resursa::Pregled_povezanih_informacionih_resursa
  class Brisanje_informacionih_resursa {
  }
  Rukovalac_informacionih_resursa +-right- Funkcionalnost::Rukovalac_informacionih_resursa::Brisanje_informacionih_resursa
  class Mogucnost_sortiranja {
  }
  Rukovalac_informacionih_resursa +-right- Funkcionalnost::Rukovalac_informacionih_resursa::Mogucnost_sortiranja
  
  class Rukovanje_tipovima_informacionih_resursa <<requirement>> {
  }
  Rukovanje_tipovima_informacionih_resursa .up...> Funkcionalnost::Administracija_pristupa_informacionih_resursa
  Rukovanje_tipovima_informacionih_resursa .up...> Funkcionalnost::Izmene_i_brisanje_razlicitih_tipova_informacionih_resursa
  Rukovanje_tipovima_informacionih_resursa .up...> Funkcionalnost::Rukovanje_povezanim_informacionim_resursom
  Rukovanje_tipovima_informacionih_resursa .up...> Funkcionalnost::Rukovanje_pojedinacnim_informacionim_resursom
  Rukovanje_tipovima_informacionih_resursa .up...> Funkcionalnost::Kreiranje_razlicitih_tipova_informacionih_resursa
  Rukovanje_tipovima_informacionih_resursa .up...> Funkcionalnost::Rukovanje_pojedinacnim_informacionim_resursom
  Rukovanje_tipovima_informacionih_resursa .up...> Funkcionalnost::Rukovanje_povezanim_informacionim_resursom
  Rukovanje_tipovima_informacionih_resursa .up...> Funkcionalnost::Izmene_i_brisanje_razlicitih_tipova_informacionih_resursa
  Rukovanje_tipovima_informacionih_resursa .up...> Funkcionalnost::Administracija_pristupa_informacionih_resursa
  Rukovanje_tipovima_informacionih_resursa .up...> Funkcionalnost::Izmene_i_brisanje_razlicitih_tipova_informacionih_resursa
  
  class Korisnik <<actor>> {
  }
  
  class Pretraga_razlicitih_tipova_informacionih_resursa <<requirement>> {
  }
  
  class Rukovanje_povezanim_informacionim_resursom <<requirement>> {
  }
}

@enduml

PlantUML version 1.2021.4(Sun Apr 04 10:49:39 CEST 2021)
(GPL source distribution)
Java Runtime: OpenJDK Runtime Environment
JVM: OpenJDK 64-Bit Server VM
Default Encoding: Cp1252
Language: en
Country: US
--></g></svg>